<?xml version="1.0" encoding="UTF-8"?>
<svg version="1.1" xmlns="http://www.w3.org/2000/svg" width="1987" height="1987">
<path d="M0 0 C2.95800709 0.00564249 5.91600845 0.00846157 8.87401962 0.0110817 C36.22249032 0.04630019 63.46040001 0.25965476 90.6908226 3.06482315 C93.29748885 3.33175617 95.90521938 3.58569275 98.51333237 3.83807755 C189.20095931 12.71117223 278.75298876 33.5022447 387.16372299 76.31805801 C388.12900925 76.71867447 388.12900925 76.71867447 389.11379623 77.12738419 C427.94556342 93.25502398 466.08825744 111.97463683 502.18130112 133.55096817 C505.16483555 135.31871721 508.16823577 137.04698744 511.17934799 138.76727676 C525.72973373 147.14006669 539.76045913 156.19412542 553.72622299 165.50555801 C554.60824387 166.09266556 555.49026474 166.6797731 556.39901352 167.28467178 C572.25589177 177.85777116 587.79554418 188.83429244 602.91372299 200.44305801 C604.22929184 201.44961441 604.22929184 201.44961441 605.57143784 202.47650528 C620.5048823 213.92237565 635.14832915 225.67990025 649.47231674 237.8810463 C651.15664906 239.31204803 652.84718579 240.73542836 654.53872299 242.15790176 C661.65900501 248.17157795 668.5479065 254.38626284 675.30752182 260.80340958 C678.77262216 264.09179748 682.27731752 267.32053736 685.84756088 270.49481583 C690.78325573 274.9310489 695.52114894 279.53015268 700.20669174 284.22821426 C701.01939026 285.03995605 701.83208878 285.85169785 702.66941452 286.68803787 C704.37048651 288.3884352 706.07031989 290.09007247 707.7689476 291.79291153 C710.35188815 294.38122456 712.9401464 296.96413362 715.52895737 299.54657364 C717.19268964 301.21096655 718.85611178 302.87566955 720.51919174 304.54071426 C721.28289581 305.3023941 722.04659988 306.06407394 722.8334465 306.84883499 C726.92125785 310.95434653 730.85092853 315.14071186 734.62281418 319.5390358 C737.17390751 322.48434422 739.8653288 325.29672743 742.53872299 328.13055801 C747.26568675 333.17716746 751.73881442 338.35139949 756.06216049 343.75165176 C758.14373726 346.29365165 760.31410679 348.71335137 762.53872299 351.13055801 C766.52055886 355.50506627 770.18114382 360.06334876 773.80263901 364.73456192 C776.76417783 368.5512037 779.78332128 372.31017519 782.8561058 376.03778458 C789.89975437 384.59290926 796.54105773 393.40697698 803.03774643 402.38299942 C804.70228762 404.68101437 806.37323129 406.97393121 808.04751205 409.26483536 C815.9267244 420.07414392 823.50884288 431.05416896 830.91372299 442.19305801 C831.47377029 443.03401016 832.0338176 443.87496231 832.61083603 444.74139786 C847.44071022 467.03786516 861.25053794 489.85351931 874.16372299 513.31805801 C874.71592514 514.31949844 875.26812729 515.32093887 875.83706284 516.35272598 C916.48986622 590.32484043 947.19864146 669.11209131 979.16372299 800.31805801 C979.3094072 801.03787857 979.4550914 801.75769913 979.60519028 802.49933243 C985.8818702 833.69761921 990.19347792 865.29207331 993.41372299 896.94305801 C993.52928543 898.05694397 993.52928543 898.05694397 993.64718246 899.19333267 C994.2312744 904.89574694 994.71886448 910.60317741 995.16372299 916.31805801 C995.29452759 917.98167374 995.29452759 917.98167374 995.4279747 919.67889786 C997.21153221 943.16936829 997.52741319 966.60348134 997.48178101 990.15433502 C997.47613852 993.11234212 997.47331944 996.07034347 997.47069931 999.02835464 C997.43548081 1026.37682535 997.22212625 1053.61473504 994.41695786 1080.84515762 C994.15002483 1083.45182387 993.89608826 1086.0595544 993.64370346 1088.66766739 C984.77060877 1179.35529433 963.97953631 1268.90732378 921.16372299 1377.31805801 C920.76310654 1378.28334427 920.76310654 1378.28334427 920.35439682 1379.26813126 C904.22675703 1418.09989844 885.50714417 1456.24259246 863.93081284 1492.33563614 C862.1630638 1495.31917057 860.43479356 1498.3225708 858.71450424 1501.33368301 C850.34171432 1515.88406875 841.28765559 1529.91479415 831.97622299 1543.88055801 C831.38911545 1544.76257889 830.8020079 1545.64459976 830.19710922 1546.55334854 C819.62400984 1562.41022679 808.64748856 1577.9498792 797.03872299 1593.06805801 C796.36768539 1593.94510391 795.6966478 1594.82214981 795.00527573 1595.72577286 C783.55940535 1610.65921732 771.80188075 1625.30266417 759.60073471 1639.62665176 C758.16973298 1641.31098408 756.74635265 1643.00152081 755.32387924 1644.69305801 C749.31020306 1651.81334004 743.09551817 1658.70224152 736.67837143 1665.46185684 C733.38998352 1668.92695718 730.16124365 1672.43165254 726.98696518 1676.0018959 C722.55073211 1680.93759075 717.95162832 1685.67548396 713.25356674 1690.36102676 C712.44182495 1691.17372528 711.63008316 1691.9864238 710.79374313 1692.82374954 C709.09334581 1694.52482153 707.39170853 1696.22465491 705.68886948 1697.92328262 C703.10055645 1700.50622318 700.51764739 1703.09448142 697.93520737 1705.68329239 C696.27081445 1707.34702467 694.60611146 1709.0104468 692.94106674 1710.67352676 C691.79854698 1711.81908287 691.79854698 1711.81908287 690.63294601 1712.98778152 C686.52743447 1717.07559287 682.34106915 1721.00526356 677.94274521 1724.7771492 C674.99743678 1727.32824253 672.18505358 1730.01966382 669.35122299 1732.69305801 C664.30461355 1737.42002177 659.13038151 1741.89314945 653.73012924 1746.21649551 C651.18812936 1748.29807228 648.76842964 1750.46844181 646.35122299 1752.69305801 C641.97671473 1756.67489388 637.41843225 1760.33547884 632.74721909 1763.95697403 C628.93057731 1766.91851285 625.17160582 1769.93765631 621.44399643 1773.01044083 C612.88887174 1780.05408939 604.07480403 1786.69539275 595.09878159 1793.19208145 C592.80076663 1794.85662264 590.50784979 1796.52756631 588.21694565 1798.20184708 C577.40763708 1806.08105942 566.42761205 1813.6631779 555.28872299 1821.06805801 C554.44777084 1821.62810532 553.6068187 1822.18815262 552.74038315 1822.76517105 C530.44391585 1837.59504525 507.62826169 1851.40487296 484.16372299 1864.31805801 C483.16228256 1864.87026016 482.16084213 1865.42246231 481.12905502 1865.99139786 C407.15694058 1906.64420124 328.36968969 1937.35297649 197.16372299 1969.31805801 C196.44390244 1969.46374222 195.72408188 1969.60942642 194.98244858 1969.7595253 C163.78416179 1976.03620523 132.18970769 1980.34781295 100.53872299 1983.56805801 C99.42483704 1983.68362045 99.42483704 1983.68362045 98.28844833 1983.80151749 C92.58603406 1984.38560942 86.8786036 1984.8731995 81.16372299 1985.31805801 C80.05464584 1985.40526108 78.9455687 1985.49246414 77.80288315 1985.58230972 C54.31241272 1987.36586723 30.87829967 1987.68174821 7.32744598 1987.63611603 C4.36943889 1987.63047354 1.41143753 1987.62765446 -1.54657364 1987.62503433 C-28.89504434 1987.58981584 -56.13295403 1987.37646127 -83.36337662 1984.57129288 C-85.97004287 1984.30435986 -88.5777734 1984.05042328 -91.18588638 1983.79803848 C-181.87351333 1974.92494379 -271.42554278 1954.13387133 -379.83627701 1911.31805801 C-380.80156326 1910.91744156 -380.80156326 1910.91744156 -381.78635025 1910.50873184 C-420.61811744 1894.38109205 -458.76081145 1875.6614792 -494.85385513 1854.08514786 C-497.83738956 1852.31739882 -500.84078979 1850.58912859 -503.85190201 1848.86883926 C-518.40228774 1840.49604934 -532.43301315 1831.44199061 -546.39877701 1822.13055801 C-547.28079788 1821.54345047 -548.16281876 1820.95634293 -549.07156754 1820.35144424 C-564.92844578 1809.77834486 -580.46809819 1798.80182358 -595.58627701 1787.19305801 C-596.46332291 1786.52202042 -597.3403688 1785.85098282 -598.24399185 1785.15961075 C-613.17743632 1773.71374037 -627.82088317 1761.95621578 -642.14487076 1749.75506973 C-643.82920307 1748.324068 -645.51973981 1746.90068767 -647.21127701 1745.47821426 C-654.33155903 1739.46453808 -661.22046051 1733.24985319 -667.98007584 1726.83270645 C-671.44517618 1723.54431855 -674.94987154 1720.31557867 -678.5201149 1717.1413002 C-683.45580975 1712.70506713 -688.19370296 1708.10596334 -692.87924576 1703.40790176 C-694.09829353 1702.19028908 -694.09829353 1702.19028908 -695.34196854 1700.94807816 C-697.04304052 1699.24768083 -698.7428739 1697.54604355 -700.44150162 1695.8432045 C-703.02444217 1693.25489147 -705.61270041 1690.67198241 -708.20151138 1688.08954239 C-709.86524366 1686.42514948 -711.5286658 1684.76044648 -713.19174576 1683.09540176 C-714.33730186 1681.952882 -714.33730186 1681.952882 -715.50600052 1680.78728104 C-719.59381187 1676.6817695 -723.52348255 1672.49540417 -727.29536819 1668.09708023 C-729.84646152 1665.15177181 -732.53788281 1662.3393886 -735.21127701 1659.50555801 C-739.93824077 1654.45894857 -744.41136844 1649.28471653 -748.73471451 1643.88446426 C-750.81629128 1641.34246438 -752.98666081 1638.92276466 -755.21127701 1636.50555801 C-759.19311287 1632.13104975 -762.85369784 1627.57276727 -766.47519302 1622.90155411 C-769.43673184 1619.08491233 -772.4558753 1615.32594084 -775.52865982 1611.59833145 C-782.57230839 1603.04320676 -789.21361174 1594.22913905 -795.71030045 1585.25311661 C-797.37484164 1582.95510166 -799.0457853 1580.66218482 -800.72006607 1578.37128067 C-808.59927841 1567.56197211 -816.18139689 1556.58194707 -823.58627701 1545.44305801 C-824.42634796 1544.18162979 -824.42634796 1544.18162979 -825.28339005 1542.89471817 C-840.11326424 1520.59825087 -853.92309196 1497.78259671 -866.83627701 1474.31805801 C-867.38847916 1473.31661758 -867.9406813 1472.31517715 -868.50961685 1471.28339005 C-909.16242023 1397.3112756 -939.87119548 1318.52402471 -971.83627701 1187.31805801 C-971.98196121 1186.59823746 -972.12764542 1185.8784169 -972.27774429 1185.1367836 C-978.55442422 1153.93849682 -982.86603194 1122.34404271 -986.08627701 1090.69305801 C-986.20183945 1089.57917206 -986.20183945 1089.57917206 -986.31973648 1088.44278336 C-986.90382841 1082.74036908 -987.3914185 1077.03293862 -987.83627701 1071.31805801 C-987.92348007 1070.20898087 -988.01068314 1069.09990372 -988.10052872 1067.95721817 C-989.88408623 1044.46674774 -990.1999672 1021.03263469 -990.15433502 997.48178101 C-990.14869253 994.52377391 -990.14587345 991.56577255 -990.14325333 988.60776138 C-990.10803483 961.25929068 -989.89468026 934.02138099 -987.08951187 906.7909584 C-986.82257885 904.18429215 -986.56864228 901.57656162 -986.31625748 898.96844864 C-977.44316279 808.2808217 -956.65209032 718.72879224 -913.83627701 610.31805801 C-913.43566055 609.35277176 -913.43566055 609.35277176 -913.02695084 608.36798477 C-896.89931105 569.53621759 -878.17969819 531.39352357 -856.60336685 495.30047989 C-854.83561782 492.31694546 -853.10734758 489.31354523 -851.38705826 486.30243301 C-843.01426834 471.75204728 -833.9602096 457.72132187 -824.64877701 443.75555801 C-824.06166946 442.87353714 -823.47456192 441.99151627 -822.86966324 441.08276749 C-812.29656386 425.22588924 -801.32004258 409.68623683 -789.71127701 394.56805801 C-789.04023941 393.69101212 -788.36920181 392.81396622 -787.67782974 391.91034317 C-776.23195937 376.9768987 -764.47443477 362.33345186 -752.27328873 348.00946426 C-750.84228699 346.32513195 -749.41890666 344.63459522 -747.99643326 342.94305801 C-741.98275708 335.82277599 -735.76807218 328.93387451 -729.35092545 322.17425919 C-726.06253754 318.70915885 -722.83379767 315.20446348 -719.6595192 311.63422012 C-715.22328612 306.69852528 -710.62418234 301.96063206 -705.92612076 297.27508926 C-705.11437897 296.46239075 -704.30263718 295.64969223 -703.46629715 294.81236649 C-701.76589982 293.1112945 -700.06426255 291.41146112 -698.36142349 289.7128334 C-695.77311046 287.12989285 -693.1902014 284.54163461 -690.60776138 281.95282364 C-688.94336847 280.28909136 -687.27866547 278.62566923 -685.61362076 276.96258926 C-684.85194092 276.19888519 -684.09026108 275.43518112 -683.30550003 274.6483345 C-679.19998849 270.56052315 -675.01362316 266.63085247 -670.61529922 262.85896683 C-667.6699908 260.3078735 -664.85760759 257.61645221 -662.02377701 254.94305801 C-656.97716756 250.21609426 -651.80293553 245.74296658 -646.40268326 241.41962051 C-643.86068338 239.33804375 -641.44098366 237.16767421 -639.02377701 234.94305801 C-634.64926875 230.96122215 -630.09098626 227.30063718 -625.4197731 223.679142 C-621.60313133 220.71760318 -617.84415984 217.69845972 -614.11655045 214.6256752 C-605.56142576 207.58202664 -596.74735805 200.94072328 -587.7713356 194.44403458 C-585.47332065 192.77949339 -583.18040381 191.10854972 -580.88949966 189.43426895 C-570.0801911 181.55505661 -559.10016606 173.97293813 -547.96127701 166.56805801 C-546.69984879 165.72798706 -546.69984879 165.72798706 -545.41293716 164.87094498 C-523.11646986 150.04107078 -500.30081571 136.23124307 -476.83627701 123.31805801 C-475.83483658 122.76585587 -474.83339615 122.21365372 -473.80160904 121.64471817 C-399.8294946 80.99191479 -321.04224371 50.28313954 -189.83627701 18.31805801 C-189.11645645 18.17237381 -188.39663589 18.02668961 -187.65500259 17.87659073 C-156.45671581 11.5999108 -124.86226171 7.28830308 -93.21127701 4.06805801 C-92.09739105 3.95249557 -92.09739105 3.95249557 -90.96100235 3.83459854 C-85.25858808 3.25050661 -79.55115761 2.76291653 -73.83627701 2.31805801 C-72.72719986 2.23085495 -71.61812271 2.14365189 -70.47543716 2.0538063 C-46.98496674 0.27024879 -23.55085368 -0.04563218 0 0 Z " fill="#F8F8F8" transform="translate(989.8362770080566,-0.3180580139160156)"/>
<path d="M0 0 C6.70754988 2.89118529 11.65785766 6.31571531 15 13 C16.27029435 22.10982517 13.34383246 30.02614443 8.28515625 37.55078125 C5.82130793 40.75863628 3.25085668 43.74457022 0.4152832 46.63183594 C-2.52214213 50.17982741 -2.65022606 53.55072721 -2.48828125 58.0234375 C-2.48120651 58.76961334 -2.47413177 59.51578918 -2.46684265 60.28457642 C-2.43903177 62.64910592 -2.376328 65.0111963 -2.3125 67.375 C-2.2873995 68.98564268 -2.26458939 70.59632279 -2.24414062 72.20703125 C-2.1892501 76.13894912 -2.10307849 80.06906223 -2 84 C-0.03123474 83.99275208 1.93753052 83.98550415 3.90629578 83.97825623 C10.7531854 84.04936332 15.09434283 85.78338618 20.6875 89.4375 C21.38665527 89.88343506 22.08581055 90.32937012 22.80615234 90.78881836 C28.25383184 94.33734684 33.09937386 98.320407 38.02734375 102.55859375 C52.11336795 114.12727328 68.71216418 121.27818081 85.9765625 126.67578125 C89.77408931 127.87744939 93.36528497 129.37344117 97 131 C97.0825 130.175 97.165 129.35 97.25 128.5 C98.33793098 123.42298877 100.29492748 118.70507252 104 115 C107.25017325 114.54997601 110.53474227 114.67595047 113.8125 114.6875 C114.71548828 114.67138672 115.61847656 114.65527344 116.54882812 114.63867188 C125.44829742 114.63213296 125.44829742 114.63213296 129 118 C129.5234375 120.33984375 129.5234375 120.33984375 129.375 122.9375 C129.32472656 124.21947266 129.32472656 124.21947266 129.2734375 125.52734375 C129 128 129 128 128.4765625 129.87890625 C127.79219702 132.9248936 127.94021118 135.89098154 128 139 C129.14855469 139.4125 130.29710937 139.825 131.48046875 140.25 C149.75553977 146.97481546 168.3295461 156.43391936 177 175 C177.67923296 178.79238403 177.82535963 182.22499449 177 186 C176.34 186.66 175.68 187.32 175 188 C171.94501731 187.83000096 170.40797852 187.36171291 168.10546875 185.3203125 C167.15607422 184.23363281 167.15607422 184.23363281 166.1875 183.125 C153.45650607 169.99876279 137.8400699 163.45490881 121 157 C119.31021197 165.51444186 118.71912961 173.67140609 118.7265625 182.33984375 C118.70625924 184.89388448 118.6854082 187.4479209 118.6640625 190.00195312 C118.64161336 193.95714986 118.62503776 197.91217441 118.61914062 201.86743164 C118.57869155 218.02178158 117.92309162 233.28739264 114 249 C113.70722168 250.19052979 113.41444336 251.38105957 113.11279297 252.60766602 C112.34343055 255.53165365 111.50891325 258.42132956 110.625 261.3125 C110.32682373 262.31104004 110.02864746 263.30958008 109.72143555 264.33837891 C106.89618846 273.64498707 103.60431418 282.72060833 99.87890625 291.703125 C98.87651899 294.12133552 97.92584111 296.55149459 97 299 C96.62617188 299.94875 96.25234375 300.8975 95.8671875 301.875 C91.69811733 314.00320413 91.73247025 327.72762022 93.46069336 340.37011719 C94.23995175 346.34716265 94.45347913 352.36936437 94.75481796 358.38525009 C94.86984449 360.669962 94.98947167 362.95439234 95.11038208 365.23880005 C95.45360665 371.73095809 95.79230146 378.22332824 96.11962891 384.71630859 C97.10756489 404.24532401 98.41534842 423.6029214 101 443 C101.19448229 444.50856554 101.38853403 446.0171867 101.58203125 447.52587891 C102.0562926 451.14526548 102.55302128 454.76042669 103.0625 458.375 C103.22298828 459.5403125 103.38347656 460.705625 103.54882812 461.90625 C104.91214874 471.69587758 106.43326528 481.44312097 108.41503906 491.12792969 C109.00967873 494.04752111 109.58610673 496.97044375 110.15911865 499.89434814 C110.7434344 502.87324716 111.33263872 505.85117249 111.921875 508.82910156 C112.22178359 510.34868152 112.520307 511.86853558 112.81738281 513.38867188 C114.89605585 524.01709765 117.27513843 534.51876136 120 545 C120.35650635 546.38904541 120.35650635 546.38904541 120.72021484 547.80615234 C121.30626994 550.08107413 121.90038776 552.35361779 122.5 554.625 C122.81300049 555.81101807 122.81300049 555.81101807 123.13232422 557.02099609 C125.80759375 567.10470434 128.59776627 577.13352217 132 587 C132.41765625 586.52949219 132.8353125 586.05898438 133.265625 585.57421875 C141.09506089 578.13008975 150.75826332 578.02127751 161 577 C162.41006628 576.84735055 163.82005361 576.69397089 165.22998047 576.54003906 C178.96287156 575.06913085 192.71232457 574.15427263 206.5 573.375 C207.64689301 573.30896576 208.79378601 573.24293152 209.97543335 573.17489624 C230.00110692 572.03753441 249.94753986 571.61250325 270 572 C270.4172937 570.88226196 270.4172937 570.88226196 270.84301758 569.74194336 C271.88490385 567.27276742 272.98732133 565.31737542 274.51171875 563.12890625 C275.01421143 562.40155273 275.5167041 561.67419922 276.03442383 560.92480469 C276.57993896 560.14524414 277.1254541 559.36568359 277.6875 558.5625 C278.87276033 556.85051271 280.05764138 555.13826279 281.2421875 553.42578125 C281.86061523 552.53455566 282.47904297 551.64333008 283.11621094 550.72509766 C285.58455769 547.15437624 288.02402923 543.56445187 290.46264648 539.97338867 C307.44613732 514.96997832 324.79119455 490.31073338 343.20507812 466.33837891 C344.78147952 464.28468297 346.35305632 462.22745815 347.921875 460.16796875 C352.50223458 454.16525519 357.18262863 448.2586635 361.9921875 442.4375 C364.01890979 439.97704337 366.01411752 437.49348473 368 435 C364.06467606 434.82889896 360.63111813 435.00741817 356.7890625 435.8828125 C349.34390158 437.4197638 341.79983058 438.17709699 334.25 439 C333.06748657 439.13023056 333.06748657 439.13023056 331.86108398 439.26309204 C316.26441935 440.97013011 300.67089429 442.18985516 285 443 C283.4214624 443.08677002 283.4214624 443.08677002 281.81103516 443.17529297 C247.52047013 444.99311905 212.01120055 446.35509062 178 441 C177.21383301 440.88785156 176.42766602 440.77570313 175.61767578 440.66015625 C154.83212796 437.68094037 133.38760619 430.64364408 120.0625 413.5 C114.42224378 404.67959931 114.06588293 395.17975303 115 385 C115.82389529 381.82702229 117.02728082 379.59879173 119 377 C119.45117188 376.3503125 119.90234375 375.700625 120.3671875 375.03125 C128.83559058 364.07709676 141.7063688 358.96931628 155 357 C159.66482611 356.76185139 164.32966321 356.76914072 169 356.75 C170.8871875 356.7190625 170.8871875 356.7190625 172.8125 356.6875 C174.029375 356.68234375 175.24625 356.6771875 176.5 356.671875 C177.6034375 356.6625293 178.706875 356.65318359 179.84375 356.64355469 C183.44138834 357.04984738 185.87454877 358.21722191 189 360 C188.625 361.9375 188.625 361.9375 188 364 C185.63638364 365.18180818 184.07046275 365.10097071 181.4375 365.1875 C174.76432938 365.78711823 169.57947556 368.93394155 165.28125 374.04296875 C163.85164585 375.97696964 163.85164585 375.97696964 163.4375 378.5 C163.80273119 381.20998292 163.80273119 381.20998292 166.25 383.125 C175.94270835 388.71001263 188.29761792 388.7977121 199.1875 389.625 C200.67520163 389.74652461 202.16283261 389.86891732 203.65039062 389.9921875 C208.09867139 390.35323472 212.54726091 390.69845105 217 391 C218.2241008 391.08480118 219.4482016 391.16960236 220.70939636 391.25697327 C231.13507537 391.9461269 241.51849044 392.16312708 251.96484375 392.16796875 C253.6527153 392.17120135 255.3405866 392.17456671 257.02845764 392.17805481 C260.55047246 392.18399175 264.07246297 392.18590079 267.59448242 392.18530273 C271.12611085 392.18522218 274.65760759 392.19205994 278.18920898 392.20581055 C301.53757702 392.29519781 324.71399818 391.75413229 348 390 C349.04034393 389.92194122 350.08068787 389.84388245 351.15255737 389.76345825 C363.27299894 388.82910283 375.36481549 387.5829131 387.4498291 386.27349854 C389.960256 386.00426243 392.47163296 385.74615626 394.98339844 385.48974609 C398.89414171 385.08494357 402.7964542 384.63168898 406.69726562 384.14053345 C408.11911235 383.96716618 409.5426942 383.80734066 410.96777344 383.66293335 C422.48863201 382.4730907 427.84229889 378.68886771 436 371 C438.34310083 369.18999725 440.76562564 367.54620751 443.25 365.9375 C443.86931396 365.53176758 444.48862793 365.12603516 445.12670898 364.70800781 C468.82061195 349.39325745 497.62508792 335.72267454 526.625 341.75390625 C536.36040392 344.85706625 542.00605516 349.0800925 547 358 C548.72998653 361.94413312 549.5952905 364.66288348 549 369 C541.30890626 387.57317318 518.36614812 398.7328961 501 406 C485.47598023 412.33461089 469.65209013 415.2834443 453.09375 417.38671875 C452.24014893 417.49991455 451.38654785 417.61311035 450.50708008 417.72973633 C448 418 448 418 445.5612793 418.04174805 C442.26096183 418.14856674 439.92128195 418.24925209 437.30517578 420.38110352 C435.65269991 422.32072662 434.22970103 424.319961 432.8125 426.4375 C431.69422617 428.00238785 430.57438239 429.56615477 429.453125 431.12890625 C428.88529297 431.93730957 428.31746094 432.74571289 427.73242188 433.57861328 C424.96770849 437.44282232 422.00904966 441.14888102 419.0625 444.875 C412.4561203 453.32559581 406.08768447 461.94071285 399.75878906 470.60009766 C397.98991267 473.01376437 396.21149835 475.42008784 394.4296875 477.82421875 C387.34809848 487.38281094 380.38583115 497.01306008 373.56689453 506.76074219 C371.88977468 509.15752363 370.20874447 511.55153251 368.52734375 513.9453125 C354.81329773 533.48384959 341.2417392 553.1373912 328 573 C329.21429687 572.96519531 330.42859375 572.93039062 331.6796875 572.89453125 C342.1077407 572.69333699 352.32007734 573.13550049 362.6875 574.3125 C363.7604834 574.43020752 364.8334668 574.54791504 365.93896484 574.66918945 C375.33047746 575.81223059 384.18828243 577.01798949 391 584 C393.33337873 587.28794276 393.59899628 590.03164964 393 594 C389.75992809 601.20841686 383.6495193 606.58550166 378.02685547 611.95117188 C374.44539217 615.39643178 371.70713603 618.79987263 369 623 C366.66780805 626.0037856 365.61193274 626.91565518 361.7855835 627.4430542 C360.51539368 627.41640686 359.24520386 627.38975952 357.93652344 627.36230469 C357.23368225 627.35313522 356.53084106 627.34396576 355.80670166 627.33451843 C353.49013768 627.29952478 351.17530452 627.23585489 348.859375 627.171875 C347.25086607 627.14196838 345.64232287 627.11385558 344.03375244 627.08746338 C339.80494819 627.01326284 335.57704898 626.91471613 331.34887695 626.81109619 C327.03234604 626.70962021 322.71540352 626.63116905 318.3984375 626.55078125 C309.93171883 626.38972369 301.46581772 626.20294442 293 626 C292.69693436 626.77818588 292.39386871 627.55637177 292.08161926 628.35813904 C291.00243047 630.99406355 289.73643972 633.20382937 288.19921875 635.59765625 C287.64105469 636.47099609 287.08289063 637.34433594 286.5078125 638.24414062 C285.90710938 639.17419922 285.30640625 640.10425781 284.6875 641.0625 C284.06230469 642.03767578 283.43710937 643.01285156 282.79296875 644.01757812 C278.19306685 651.18173985 273.55263569 658.31963387 268.90161133 665.45068359 C264.243878 672.59982826 259.66230927 679.79611559 255.08984375 687 C251.58597551 692.51722683 248.05946355 698.01849186 244.5 703.5 C240.40299519 709.811602 236.34833429 716.14911463 232.3125 722.5 C227.01198182 730.84102218 221.70001791 739.17460363 216.375 747.5 C215.69993408 748.55638672 215.02486816 749.61277344 214.3293457 750.70117188 C213.692146 751.69697266 213.05494629 752.69277344 212.3984375 753.71875 C211.51236816 755.11287109 211.51236816 755.11287109 210.60839844 756.53515625 C209.29169681 758.55297951 207.91295474 760.4746772 206.4765625 762.40625 C204.79660247 764.85281761 204.79660247 764.85281761 205.01953125 767.41796875 C206.32672511 770.86041951 207.93492887 774.08187076 209.6875 777.3125 C210.07615234 778.03816162 210.46480469 778.76382324 210.86523438 779.51147461 C215.57690636 788.21196414 220.62307163 796.72150522 225.63671875 805.25 C228.41955214 809.98991404 231.13914294 814.76019171 233.8125 819.5625 C243.00614584 836.0131818 253.22514853 851.64369137 263.99609375 867.09765625 C265.64142537 869.48066091 267.2373292 871.88315494 268.8125 874.3125 C276.21910887 885.70518933 276.21910887 885.70518933 285 896 C285.33 893.36 285.66 890.72 286 888 C288.97 888 291.94 888 295 888 C295 900.21 295 912.42 295 925 C302.92 925 310.84 925 319 925 C319 927.31 319 929.62 319 932 C317.68 932.33 316.36 932.66 315 933 C320.05027886 939.33288937 325.13891624 945.40600361 331 951 C332.66666667 952.66666667 334.33333333 954.33333333 336 956 C336.61875 956.60714844 337.2375 957.21429687 337.875 957.83984375 C341.05826385 960.98090524 344.15333397 964.11082049 347 967.5625 C349.76906257 970.88386194 352.90520937 973.58932871 356.1953125 976.3828125 C358.42366797 978.37965052 360.13263269 980.66579087 362 983 C363.9283901 984.76871448 365.90172977 986.46984776 367.90234375 988.15625 C370.38025557 990.33422836 372.67256419 992.66209596 375 995 C376.90627505 996.80510403 378.8177555 998.59832821 380.75 1000.375 C381.27368164 1000.85686768 381.79736328 1001.33873535 382.33691406 1001.83520508 C386.00551753 1005.17645451 389.81298283 1008.23653776 393.78540039 1011.2121582 C395.94296919 1012.95395915 397.78305816 1014.78928023 399.68359375 1016.8046875 C403.84929083 1021.01920512 408.36015491 1024.21624671 413.3125 1027.4375 C418.5888423 1030.95084949 423.73480899 1034.43947196 428.5625 1038.5625 C438.31144609 1046.82096759 449.47747548 1053.49219606 460.29296875 1060.25390625 C462.24074125 1061.51026167 464.15686839 1062.81617732 466.05078125 1064.15234375 C475.31742534 1070.66906973 485.15134857 1075.83677804 495.23730469 1080.96044922 C500.8960831 1083.84344624 506.42333626 1086.72871968 511.75 1090.1875 C520.98394802 1096.07726144 531.07136861 1100.4270381 541 1105 C542.24452755 1105.57636484 543.48899167 1106.15286663 544.73339844 1106.72949219 C547.97117069 1108.22755408 551.21441719 1109.71318852 554.46166992 1111.19058228 C555.72245213 1111.76512943 556.98208842 1112.34219885 558.24047852 1112.92196655 C564.49306273 1115.79645217 570.38090651 1118.33772566 577.16601562 1119.56982422 C579.7747679 1120.18172804 581.75480461 1121.57296903 584 1123 C586.93738132 1123.82838955 589.87974787 1124.43848552 592.8671875 1125.05859375 C596 1126 596 1126 599.1640625 1127.9375 C603.91090707 1130.79044113 609.11983815 1131.53951148 614.5 1132.5625 C621.05934936 1133.83489619 626.92689606 1135.20419767 633 1138 C635.23087782 1138.61511344 635.23087782 1138.61511344 637.375 1138.9375 C642.33415755 1139.83846496 647.22274616 1140.95961026 652.125 1142.125 C652.89634277 1142.30796631 653.66768555 1142.49093262 654.46240234 1142.67944336 C656.30859608 1143.11825184 658.15434592 1143.55892722 660 1144 C660 1144.99 660 1145.98 660 1147 C632.70304951 1159.66702979 605.33554512 1170.99477305 576 1178 C575.2457373 1178.18159668 574.49147461 1178.36319336 573.71435547 1178.55029297 C554.8290533 1183.01791423 535.39880783 1185.46139358 516 1186 C514.89736816 1186.03287109 514.89736816 1186.03287109 513.77246094 1186.06640625 C457.72280002 1187.48718346 405.86717502 1172.36313051 356.06494141 1147.52294922 C353.49397856 1146.2454547 350.91483921 1144.9908273 348.32421875 1143.75390625 C337.4695013 1138.53699209 327.22031183 1132.35718043 317 1126 C316.22914063 1125.52095215 315.45828125 1125.0419043 314.6640625 1124.54833984 C301.99477592 1116.62729583 290.06895345 1108.06664665 279 1098 C277.18868206 1096.35286585 275.37614256 1094.70707419 273.5625 1093.0625 C272.71816406 1092.29035156 271.87382813 1091.51820312 271.00390625 1090.72265625 C269.31404248 1088.89135228 269.31404248 1088.89135228 268 1089 C276.84574105 1100.95533602 287.32276282 1111.5566138 297.8125 1122.0625 C298.33602051 1122.58735992 298.85954102 1123.11221985 299.39892578 1123.65298462 C306.65654881 1130.90660569 314.00125891 1137.67214782 322.30322266 1143.7265625 C325.68780495 1146.26670368 328.92167776 1148.99768539 332.1875 1151.6875 C342.34611106 1159.98083277 352.95526798 1167.47637375 363.92822266 1174.64501953 C365.3133075 1175.55089048 366.6957911 1176.46075087 368.07568359 1177.37451172 C398.05439102 1197.17879464 430.65439442 1211.85965864 464 1225 C464.70302246 1225.2789209 465.40604492 1225.5578418 466.13037109 1225.84521484 C490.27541568 1235.370432 514.95916882 1241.95192959 540.64550781 1245.64013672 C542.32019397 1245.89609767 543.99124236 1246.17637052 545.65917969 1246.47314453 C554.7655869 1248.09325576 563.90557438 1248.90483557 573.11279297 1249.67724609 C575.15921013 1249.85075185 577.20455691 1250.03416369 579.25 1250.21875 C580.45140625 1250.32123047 581.6528125 1250.42371094 582.890625 1250.52929688 C585.72492066 1250.95835796 587.56888549 1251.53471193 590 1253 C582.29731408 1258.93498347 574.36402568 1263.75946677 565.75 1268.25 C564.51954334 1268.89776109 563.28940529 1269.54612772 562.05957031 1270.19506836 C559.5719778 1271.50609849 557.08179693 1272.81202592 554.58984375 1274.11474609 C551.25515319 1275.8610368 547.93868863 1277.63992037 544.625 1279.42578125 C534.60219349 1284.79871384 524.71153037 1289.71074799 513.92578125 1293.34228516 C511.89683651 1294.03523358 509.8861605 1294.7688111 507.875 1295.51171875 C497.72890701 1299.23570025 487.48178451 1302.36602317 477 1305 C475.91525391 1305.27457031 475.91525391 1305.27457031 474.80859375 1305.5546875 C451.67672638 1311.26523794 428.46385307 1312.279815 404.75 1312.3125 C403.69423767 1312.31608521 402.63847534 1312.31967041 401.55072021 1312.32336426 C389.18721816 1312.34594687 377.22748161 1311.87100967 365 1310 C362.81281431 1309.72663999 360.62535458 1309.45545386 358.4375 1309.1875 C355.95641355 1308.80388374 353.47740106 1308.40673749 351 1308 C350.27216309 1307.89478027 349.54432617 1307.78956055 348.79443359 1307.68115234 C305.94145894 1301.24484158 261.52791925 1276.99012851 226.69482422 1252.18896484 C224.10895753 1250.37490971 221.45887865 1248.66160365 218.8125 1246.9375 C212.88873344 1243.00431087 207.27751302 1238.71746289 201.69287109 1234.32519531 C199.96644828 1232.9737354 198.22873005 1231.63802221 196.48828125 1230.3046875 C189.61440337 1225.01243494 183.07729357 1219.49727097 176.75 1213.5625 C174.27320706 1211.25457931 171.74771258 1209.02673791 169.1875 1206.8125 C165.81828905 1203.83435818 162.8994187 1200.68686881 160.00390625 1197.25390625 C157.5001303 1194.43776839 154.81603409 1191.82195573 152.125 1189.1875 C147.5274142 1184.6573483 143.3501193 1179.95515025 139.33203125 1174.89453125 C137.18145163 1172.22521886 134.96575706 1169.63876832 132.71069336 1167.05859375 C119.8534903 1152.31989904 108.81253109 1136.26885465 98 1120 C111.97285635 1163.50594823 135.40014136 1207.69991045 162.70898438 1244.24951172 C164.20236941 1246.27439272 165.65663217 1248.32467846 167.109375 1250.37890625 C173.67542416 1259.63914238 180.50417316 1268.47651949 188 1277 C188.63421875 1277.73347656 189.2684375 1278.46695312 189.921875 1279.22265625 C191.60153114 1281.16042469 193.29678959 1283.08291613 195 1285 C195.62648438 1285.70769531 196.25296875 1286.41539063 196.8984375 1287.14453125 C207.15997549 1298.64584614 217.74472084 1309.83313916 228.625 1320.75 C229.76183228 1321.8937207 229.76183228 1321.8937207 230.92163086 1323.06054688 C233.87078634 1326.00144511 236.75293737 1328.80464815 240.0234375 1331.390625 C240.67570312 1331.92171875 241.32796875 1332.4528125 242 1333 C242 1333.66 242 1334.32 242 1335 C232.51835452 1335.31215822 223.21608933 1334.37430416 213.8125 1333.3125 C213.01864899 1333.22385681 212.22479797 1333.13521362 211.40689087 1333.04388428 C197.73122619 1331.49779477 184.38156266 1329.25304239 171 1326 C169.62158936 1325.67974854 169.62158936 1325.67974854 168.21533203 1325.35302734 C144.60226886 1319.84947789 121.82703687 1311.52390986 100 1301 C99.1759668 1300.60844727 98.35193359 1300.21689453 97.50292969 1299.81347656 C79.95512352 1291.44742683 63.56659884 1281.64166755 48 1270 C47.43941895 1269.58363281 46.87883789 1269.16726563 46.30126953 1268.73828125 C39.77562542 1263.8753765 33.49295678 1258.83101031 27.51171875 1253.30078125 C26.14632662 1252.05005658 24.77349154 1250.80654588 23.36547852 1249.60400391 C17.37094421 1244.48005804 11.78187483 1238.96800713 6.2097168 1233.39501953 C4.57424118 1231.76172552 2.93092292 1230.1366153 1.28710938 1228.51171875 C-5.26197999 1221.99755819 -11.27037311 1215.25941333 -17 1208 C-18.03547606 1206.74442945 -19.07411715 1205.49145621 -20.1171875 1204.2421875 C-27.50379544 1195.27226883 -33.89378013 1185.87750051 -40 1176 C-40.38752441 1175.38189453 -40.77504883 1174.76378906 -41.17431641 1174.12695312 C-58.61987416 1146.2685072 -71.18209296 1115.95690378 -82 1085 C-82.38929688 1083.90945313 -82.77859375 1082.81890625 -83.1796875 1081.6953125 C-90.52415539 1060.52596388 -95.30752809 1038.77545237 -99.44677734 1016.79541016 C-99.76131532 1015.20606338 -100.10316561 1013.62016733 -100.52783203 1012.05664062 C-101.88199453 1006.15826169 -102.00678594 999.90347423 -102.5 993.875 C-102.56692047 993.06585144 -102.63384094 992.25670288 -102.70278931 991.42303467 C-104.56726996 968.32570355 -104.74329248 945.16040792 -105 922 C-108.23748832 937.7533213 -108.23748832 937.7533213 -110.8125 953.625 C-110.9657373 954.69290771 -111.11897461 955.76081543 -111.27685547 956.86108398 C-111.63680067 959.37984903 -111.99400975 961.89900594 -112.34912109 964.41845703 C-112.97776905 968.86525525 -113.6266367 973.30902463 -114.27537537 977.75292969 C-114.90740218 982.09563747 -115.53109405 986.43952175 -116.15341187 990.78363037 C-116.46158675 992.92631632 -116.77236811 995.06862945 -117.08609009 997.21051025 C-120.63427937 1021.49066969 -122.31735796 1045.53554253 -122.1953125 1070.0703125 C-122.19156655 1072.34243645 -122.18872711 1074.61456206 -122.18673706 1076.88668823 C-122.17922479 1082.76856214 -122.15968851 1088.65033184 -122.1373291 1094.53216553 C-122.11659773 1100.57351269 -122.10767798 1106.61487726 -122.09765625 1112.65625 C-122.07642635 1124.43754493 -122.04244745 1136.21876369 -122 1148 C-126.59606118 1147.47175657 -126.59606118 1147.47175657 -128.36245728 1145.40879822 C-128.7090036 1144.71951736 -129.05554993 1144.03023651 -129.41259766 1143.32006836 C-130.0200029 1142.14380135 -130.0200029 1142.14380135 -130.63967896 1140.94377136 C-131.06022552 1140.08447525 -131.48077209 1139.22517914 -131.9140625 1138.33984375 C-132.3659494 1137.45118118 -132.8178363 1136.56251862 -133.28341675 1135.64692688 C-134.74878628 1132.75253501 -136.18747202 1129.84580668 -137.625 1126.9375 C-138.62073778 1124.95294494 -139.61748375 1122.96889541 -140.61523438 1120.98535156 C-152.24899051 1097.7701661 -163.20987654 1074.47251152 -171.0625 1049.6875 C-171.27755188 1049.01368286 -171.49260376 1048.33986572 -171.71417236 1047.64562988 C-186.9743014 999.8184107 -193.82156307 950.71779953 -193.39123535 900.56787109 C-193.36951366 897.3831122 -193.37039327 894.19852159 -193.37124443 891.01370144 C-193.36957701 864.60218096 -192.30428772 838.30385476 -189.125 812.0625 C-189.04007294 811.34194427 -188.95514587 810.62138855 -188.86764526 809.8789978 C-184.26412557 770.88113336 -175.64186815 732.49187664 -164 695 C-163.76001282 694.22335999 -163.52002563 693.44671997 -163.27276611 692.64654541 C-152.22811162 656.95098185 -139.49277681 622.38342899 -122.8828125 588.8828125 C-120.24103157 583.54907929 -117.81661087 578.14215237 -115.4375 572.6875 C-107.97955037 555.77639282 -98.4916507 539.83341731 -89 524 C-89.66 524 -90.32 524 -91 524 C-91.2371875 524.69351563 -91.474375 525.38703125 -91.71875 526.1015625 C-93.23536888 529.53245032 -95.27828622 532.38119828 -97.5 535.375 C-101.3526227 540.67235621 -105.08704744 546.03009133 -108.69433594 551.49780273 C-111.48105275 555.72165113 -114.29891024 559.92225793 -117.140625 564.109375 C-126.44250268 577.8472433 -135.22127955 591.75090017 -143.40478516 606.19482422 C-144.94421067 608.9018948 -146.50499399 611.59527242 -148.07421875 614.28515625 C-154.32532189 625.04277428 -160.18204872 635.94977431 -165.72485352 647.09155273 C-166.23975342 648.10805908 -166.75465332 649.12456543 -167.28515625 650.171875 C-167.73769775 651.0803418 -168.19023926 651.98880859 -168.65649414 652.92480469 C-170 655 -170 655 -173 656 C-179.81475565 636.33870497 -184.87221502 616.39720774 -189 596 C-189.27553711 594.64116699 -189.27553711 594.64116699 -189.55664062 593.25488281 C-194.33200944 568.62653647 -193.6178676 543.15914427 -187 519 C-186.81888672 518.31405762 -186.63777344 517.62811523 -186.45117188 516.92138672 C-179.52756464 491.02573808 -165.03222682 467.5258655 -147.39746094 447.58618164 C-146.39796384 446.45170703 -145.40740019 445.30933684 -144.42285156 444.16186523 C-134.01859474 432.08368572 -122.61647575 420.7507334 -110 411 C-108.89843556 410.10083958 -107.79965325 409.19826398 -106.703125 408.29296875 C-93.60932679 397.53447281 -79.63661359 388.03029439 -65.51391602 378.68481445 C-27.49120374 354.8857043 -27.49120374 354.8857043 0 321 C-0.74121094 321.79921875 -1.48242188 322.5984375 -2.24609375 323.421875 C-19.63084382 341.73448655 -41.3838275 353.26917085 -64.125 363.75 C-65.05530029 364.18070801 -65.98560059 364.61141602 -66.9440918 365.05517578 C-67.81074463 365.44431152 -68.67739746 365.83344727 -69.5703125 366.234375 C-70.33102051 366.57694336 -71.09172852 366.91951172 -71.87548828 367.27246094 C-74 368 -74 368 -78 368 C-78.58333333 366.10416667 -79.16666667 364.20833333 -79.75 362.3125 C-80.12125 361.11625 -80.4925 359.92 -80.875 358.6875 C-81.56561013 356.42383348 -82.23687485 354.15401838 -82.875 351.875 C-89.21004951 329.70232673 -101.50748632 311.40469651 -114.41796875 292.5234375 C-115.13339844 291.47043457 -115.84882813 290.41743164 -116.5859375 289.33251953 C-117.93888451 287.34805055 -119.30388174 285.37171633 -120.68359375 283.40576172 C-130.84686887 268.5414469 -136.8329339 249.68733062 -133.57666016 231.65576172 C-131.14621601 220.51904688 -127.79499865 208.90085043 -122.85546875 198.6171875 C-120.74076696 192.14755188 -122.24335237 185.83101288 -123.875 179.4375 C-124.04902344 178.72142578 -124.22304687 178.00535156 -124.40234375 177.26757812 C-125.23201282 173.89051771 -126.12901442 170.59904343 -127.1953125 167.28515625 C-128.39105731 162.40349903 -127.60378744 160.03765447 -125.07324219 155.6887207 C-124.23955652 154.42878427 -123.39685501 153.17478309 -122.546875 151.92578125 C-122.09524994 151.24905869 -121.64362488 150.57233612 -121.17831421 149.87510681 C-119.71069264 147.68173608 -118.2310129 145.49684646 -116.75 143.3125 C-115.73264606 141.80128453 -114.71555706 140.28989066 -113.69873047 138.77832031 C-106.67578736 128.36408774 -99.55218329 118.03942928 -92 108 C-91.36900391 107.16082031 -90.73800781 106.32164062 -90.08789062 105.45703125 C-76.02017896 86.79880314 -61.59055336 68.48146808 -46.43701172 50.69140625 C-45.00600998 49.00707393 -43.58262965 47.3165372 -42.16015625 45.625 C-35.50695915 37.7475157 -28.56668353 30.18837156 -21.48046875 22.69921875 C-18.64389535 19.69780816 -15.86792981 16.65009115 -13.125 13.5625 C-8.93055929 8.856737 -4.5041075 4.40827542 0 0 Z " fill="#49D0D1" transform="translate(284,297)"/>
<path d="M0 0 C1.13211914 -0.04350586 1.13211914 -0.04350586 2.28710938 -0.08789062 C5.70479771 -0.12703595 7.99393633 0.03264911 10.9140625 1.875 C14.25674569 7.2232931 13.66442535 14.28978875 12.4375 20.3125 C10.69992361 25.06261173 7.76714569 29.13631598 4.875 33.24755859 C2.79375 36.23723464 0.83766964 39.30388254 -1.13330078 42.36694336 C-2.78329034 44.92664477 -4.44875068 47.47572825 -6.1171875 50.0234375 C-10.17285601 56.23231403 -14.14811983 62.49132562 -18.12207031 68.75268555 C-21.89243058 74.69167662 -25.68014182 80.61913395 -29.47998047 86.53930664 C-37.94539831 99.73263068 -46.28759376 112.99899299 -54.5625 126.3125 C-55.10438965 127.18261719 -55.6462793 128.05273438 -56.20458984 128.94921875 C-72.33981214 154.86080844 -88.05480098 181.02162241 -103.5625 207.3125 C-104.21379883 208.4164209 -104.86509766 209.5203418 -105.53613281 210.65771484 C-113.79095304 224.67257489 -121.83739478 238.79575517 -129.73095703 253.01708984 C-131.61499093 256.40694449 -133.50848492 259.79140742 -135.40234375 263.17578125 C-146.62954728 283.29070192 -157.2829975 303.69683172 -167.5625 324.3125 C-167.04042969 323.65765625 -166.51835938 323.0028125 -165.98046875 322.328125 C-160.96873238 316.11392299 -155.77526903 310.17155384 -150.3359375 304.33203125 C-148.36999056 302.21807579 -146.48746152 300.05031075 -144.6171875 297.8515625 C-139.43709319 291.91043503 -133.81987136 286.38386285 -128.24853516 280.81323242 C-126.32553818 278.88805298 -124.41069426 276.95500969 -122.49609375 275.02148438 C-115.48767174 267.98147786 -108.36455215 261.47205849 -100.5625 255.3125 C-99.48299035 254.39067662 -98.40993027 253.46116458 -97.34765625 252.51953125 C-76.56820302 234.24434498 -52.30546475 215.5231063 -23.5625 217.3125 C-15.11645039 218.31615947 -7.45993448 219.80754087 -1.5625 226.3125 C2.40018656 231.37341684 3.20309508 236.71161077 2.921875 243.0390625 C1.3004881 253.9964998 -4.95780218 264.31587711 -9.71484375 274.17578125 C-10.01437517 274.79673424 -10.31390659 275.41768723 -10.62251472 276.05745697 C-15.674016 286.51804394 -20.83906896 296.91924736 -26.05859375 307.296875 C-26.42209427 308.02002459 -26.78559479 308.74317417 -27.16011047 309.48823738 C-30.51646671 316.16464016 -33.87608456 322.83938942 -37.24633789 329.50878906 C-45.38223399 345.61510933 -53.36589352 361.76420654 -60.8203125 378.19921875 C-61.12631819 378.87341103 -61.43232388 379.5476033 -61.74760246 380.24222565 C-73.88124438 403.06797147 -73.88124438 403.06797147 -75.75 427.6875 C-74.71435568 430.59364923 -74.71435568 430.59364923 -71.5625 432.3125 C-57.72765215 433.84970532 -46.27968287 425.22792147 -35.78515625 417.18359375 C-29.87734768 412.44548042 -24.24843986 407.41507372 -18.734375 402.2265625 C-16.58094534 400.21228169 -14.36865676 398.31740717 -12.078125 396.4609375 C-2.35763588 388.38181176 2.58730388 379.44088018 8.02490234 368.15673828 C10.43965195 363.29468627 13.12336872 358.58926966 15.8125 353.875 C16.35801514 352.91529297 16.90353027 351.95558594 17.46557617 350.96679688 C24.30448219 338.981355 31.28392872 327.07097726 38.49905396 315.30783081 C39.54849528 313.59603791 40.59425192 311.88204348 41.63916016 310.16748047 C42.97684119 307.97648967 44.32253547 305.7903656 45.67724609 303.60986328 C46.28391113 302.6145459 46.89057617 301.61922852 47.515625 300.59375 C48.05606445 299.71783203 48.59650391 298.84191406 49.15332031 297.93945312 C50.60401611 294.97187009 51.23963889 292.60999917 51.4375 289.3125 C50.62095337 287.38118239 50.62095337 287.38118239 49.12890625 285.875 C48.62939453 285.28976562 48.12988281 284.70453125 47.61523438 284.1015625 C47.08220703 283.51117187 46.54917969 282.92078125 46 282.3125 C40.61364998 276.30288171 40.61364998 276.30288171 39.87890625 272.171875 C43.64944969 252.87091139 75.5137775 233.19507493 91.11401367 222.65820312 C99.13227246 217.37894849 106.55039042 213.32565102 116.4375 214.3125 C125.68996019 217.12128256 131.43581398 223.65019921 136.40625 231.6875 C138.25405911 236.39101409 137.94500902 240.02283003 136.109375 244.6875 C135.48339792 245.90348624 134.84166528 247.11144312 134.1875 248.3125 C133.83324951 248.98982178 133.47899902 249.66714355 133.11401367 250.36499023 C132.32633488 251.86855811 131.53264501 253.36898782 130.73388672 254.86669922 C129.36303233 257.45299287 128.02478925 260.05435821 126.69140625 262.66015625 C120.15259861 275.39594516 113.23692827 287.88540479 106.13916016 300.31640625 C103.75325654 304.5172397 101.40243969 308.73733927 99.05053711 312.95727539 C94.23310247 321.59991643 89.38345713 330.21497857 84.32861328 338.72119141 C81.83229497 342.92599359 79.37553267 347.15111349 76.9453125 351.39453125 C70.95626739 361.84978586 64.92412503 372.24248733 58.5 382.4375 C54.65319428 388.565186 51.00017517 394.72063308 47.75 401.1875 C47.43490479 401.81156738 47.11980957 402.43563477 46.79516602 403.07861328 C43.13535675 410.60789232 41.3261037 417.96379685 42.4375 426.3125 C44.3343843 428.96813802 45.58235055 429.88492527 48.4375 431.3125 C67.94163485 433.11242772 84.25827344 423.71605624 98.8203125 411.68017578 C108.70684439 403.31901159 116.17849277 396.94550614 119.0625 384 C124.90470912 359.9479091 135.95200927 336.40897133 150.4375 316.3125 C151.11039063 315.36632812 151.78328125 314.42015625 152.4765625 313.4453125 C162.0897121 300.26655832 173.07456141 288.48629393 184.5625 276.9375 C185.31975876 276.1723407 185.31975876 276.1723407 186.09231567 275.39172363 C192.85676959 268.57276528 199.87145843 262.24627372 207.4375 256.3125 C208.12102539 255.76964355 208.80455078 255.22678711 209.50878906 254.66748047 C235.22709792 234.42186658 268.31063918 213.86499059 302.4375 217.3125 C310.72186694 219.15968993 318.59144156 222.04341234 323.4375 229.3125 C323.4375 230.3025 323.4375 231.2925 323.4375 232.3125 C324.69304688 232.25449219 325.94859375 232.19648437 327.2421875 232.13671875 C344.66904484 231.56928412 344.66904484 231.56928412 352.4375 237.3125 C353.10007812 237.78171875 353.76265625 238.2509375 354.4453125 238.734375 C360.66333817 243.57350795 364.6452702 250.33704037 365.69262695 258.23681641 C369.15794448 305.92272063 331.75896085 355.16378143 302.4375 389.3125 C300.18309974 391.88084637 297.91219044 394.42726131 295.59765625 396.94140625 C294.38407028 398.2734979 293.17908365 399.61398574 292.00634766 400.98217773 C287.27440087 406.49718404 282.25230505 411.68387809 277.11425781 416.82104492 C275.69830053 418.23918284 274.29051711 419.66546665 272.8828125 421.09179688 C266.71598136 427.27151136 260.30830715 432.92867875 253.4375 438.3125 C252.79474121 438.81982666 252.15198242 439.32715332 251.48974609 439.84985352 C236.71993437 451.33866009 220.62331389 460.92362912 203.4375 468.3125 C202.28378906 468.82296875 201.13007812 469.3334375 199.94140625 469.859375 C188.87837935 474.44738615 178.53860924 475.71265168 166.625 475.8125 C165.49288086 475.83078857 164.36076172 475.84907715 163.19433594 475.86791992 C150.20003657 475.77385472 138.50325413 471.12131762 129.07421875 462.03515625 C125.70937035 458.33812903 122.93361006 454.65025225 120.4375 450.3125 C116.8412503 451.97630709 113.66717935 454.11509781 110.375 456.3125 C96.92109876 465.07715683 82.73862562 472.39080036 67.4375 477.3125 C66.38820313 477.65152344 65.33890625 477.99054688 64.2578125 478.33984375 C46.92329067 483.12558324 28.77408255 481.2965785 13.0625 472.5625 C5.08295109 467.33683581 -1.55760647 460.66849458 -7.5625 453.3125 C-8.2225 452.6525 -8.8825 451.9925 -9.5625 451.3125 C-10.6040625 452.0859375 -11.645625 452.859375 -12.71875 453.65625 C-26.78596015 463.94428378 -40.78385388 471.48114877 -57.5625 476.3125 C-58.70203125 476.67859375 -59.8415625 477.0446875 -61.015625 477.421875 C-66.95756798 478.8673284 -73.09855586 478.68450321 -79.17871094 478.68310547 C-81.29444927 478.68746282 -83.40806878 478.72382126 -85.5234375 478.76171875 C-98.87679888 478.8728713 -110.9987873 475.63400382 -121.33984375 466.79296875 C-131.2999242 456.37670141 -132.02097725 442.56744198 -131.8359375 429.05078125 C-131.6083416 422.17896252 -130.32808932 415.93554634 -128.22949219 409.39550781 C-127.51576545 407.16654863 -126.8563954 404.92478772 -126.1953125 402.6796875 C-119.6735078 381.27468195 -109.57772697 361.1074498 -99.625 341.125 C-99.31425537 340.49965363 -99.00351074 339.87430725 -98.68334961 339.23001099 C-95.37073729 332.58445077 -91.91234018 326.12486949 -88.02075195 319.80224609 C-86.42387713 317.07582229 -85.0232289 314.29407972 -83.6328125 311.45703125 C-80.52346207 305.12590762 -77.02926667 299.06738219 -73.4375 293 C-72.22633775 290.94153847 -71.01539445 288.8829481 -69.8046875 286.82421875 C-69.24491211 285.87466309 -68.68513672 284.92510742 -68.10839844 283.94677734 C-66.23259329 280.75032479 -64.39048888 277.53649034 -62.5625 274.3125 C-73.19575438 281.87846947 -82.43458216 291.0269022 -91.5625 300.3125 C-94.62149414 303.37741541 -97.68875802 306.43387348 -100.76107788 309.48542786 C-102.92140064 311.63217149 -105.07889088 313.78175345 -107.23632812 315.93139648 C-108.3659592 317.05600194 -109.4964866 318.17970782 -110.62792969 319.30249023 C-116.24225321 324.87512324 -121.81146491 330.42280728 -126.94775391 336.44604492 C-130.67642473 340.75594641 -134.67544909 344.82784301 -138.6015625 348.95703125 C-142.4651634 353.03693413 -146.22874413 357.17893456 -149.91015625 361.42382812 C-152.40352291 364.27381106 -154.98084445 367.04268337 -157.5625 369.8125 C-161.3946857 373.94362109 -165.17889565 378.10293491 -168.86328125 382.3671875 C-170.85656428 384.6491529 -172.89743027 386.88478574 -174.9375 389.125 C-178.02886801 392.54479328 -180.98709032 396.03208524 -183.875 399.625 C-187.28672523 403.84648899 -190.85569816 407.85321347 -194.5625 411.8125 C-198.98985218 416.54583279 -203.17640626 421.39916734 -207.234375 426.45703125 C-209.37688069 429.08483605 -211.5744675 431.64706034 -213.80175781 434.20239258 C-218.852482 440.00321624 -223.65998019 445.93703119 -228.3125 452.0625 C-228.86301025 452.78421387 -229.41352051 453.50592773 -229.98071289 454.24951172 C-232.2928236 457.28880446 -234.57962409 460.33632482 -236.80859375 463.4375 C-241.2787495 469.48165425 -245.54981978 472.60439921 -252.5625 475.3125 C-253.614375 475.745625 -254.66625 476.17875 -255.75 476.625 C-262.05436978 478.16606817 -266.09359501 477.37874017 -271.62890625 474.3359375 C-274.17388814 472.98889658 -276.81048106 472.13810568 -279.5625 471.3125 C-281.3080573 466.31251383 -279.4660882 462.6134335 -277.5 458 C-277.14421875 457.14027588 -276.7884375 456.28055176 -276.421875 455.39477539 C-275.15457318 452.3588823 -273.86131933 449.33504138 -272.5625 446.3125 C-272.06766113 445.15685547 -271.57282227 444.00121094 -271.06298828 442.81054688 C-252.67300569 399.95745268 -232.84812749 357.70830077 -212 316 C-211.32309113 314.64468674 -211.32309113 314.64468674 -210.63250732 313.26199341 C-204.77146348 301.54138043 -198.75953372 289.90905607 -192.62710571 278.32833862 C-191.19954196 275.62523633 -189.78926536 272.91335605 -188.3828125 270.19921875 C-179.67056698 253.38784649 -170.71987642 236.71808784 -161.27734375 220.3046875 C-157.77850671 214.19965522 -154.44079834 208.01671119 -151.203125 201.76953125 C-144.76148788 189.351142 -138.00892062 177.14535639 -131.08203125 164.99169922 C-128.85935535 161.07273306 -126.6782487 157.1312766 -124.5 153.1875 C-120.47727159 145.91727344 -116.37130152 138.69692923 -112.23852539 131.48876953 C-109.00262 125.84231323 -105.79208105 120.18229272 -102.59863281 114.51171875 C-96.70139284 104.04160428 -90.71201326 93.63631312 -84.5625 83.3125 C-84.10020996 82.53342285 -83.63791992 81.7543457 -83.16162109 80.95166016 C-39.97965495 8.21275558 -39.97965495 8.21275558 -13.5625 1.3125 C-9.04617737 0.18341934 -4.63181812 0.05963714 0 0 Z " fill="#373744" transform="translate(1396.5625,636.6875)"/>
<path d="M0 0 C0.71873291 -0.00385712 1.43746582 -0.00771423 2.17797852 -0.01168823 C14.76988434 -0.04496304 28.75577225 0.27650751 38.9375 8.6875 C39.63875 9.55375 40.34 10.42 41.0625 11.3125 C41.75601563 12.11429688 42.44953125 12.91609375 43.1640625 13.7421875 C46.21348101 18.38384318 45.641491 23.70427694 45.5625 29.0625 C45.57796875 30.09632813 45.5934375 31.13015625 45.609375 32.1953125 C45.55342702 43.30098686 41.94416203 52.4169618 34.0625 60.3125 C21.28483136 70.95457514 3.98948126 79.54448202 -12.85546875 78.953125 C-18.39498816 78.38815881 -21.95687802 75.52377038 -26.09375 71.96484375 C-28.50783738 68.49203585 -28.45820361 66.46405584 -27.9375 62.3125 C-26.87890625 59.984375 -26.87890625 59.984375 -25.5 58.0625 C-23.83872382 55.69600972 -22.86737775 54.10213326 -21.9375 51.3125 C-63.16368078 55.52944447 -105.16521078 74.93580804 -133.9375 105.3125 C-136.37429906 108.88468675 -137.31028118 110.96338622 -136.9375 115.3125 C-132.23970059 117.46662755 -127.94020934 118.9021722 -122.8359375 119.890625 C-121.83705505 120.08853889 -121.83705505 120.08853889 -120.81799316 120.29045105 C-119.39159084 120.57302871 -117.96458836 120.85259113 -116.53704834 121.12936401 C-112.71818909 121.87292411 -108.90603634 122.64933014 -105.09375 123.42578125 C-104.32094696 123.58301163 -103.54814392 123.740242 -102.75192261 123.90223694 C-28.42064859 139.11282152 -28.42064859 139.11282152 -12.28515625 162.125 C-5.45580067 173.21033079 -2.94521177 183.8707862 -5.65625 196.71875 C-12.96243629 219.5800426 -31.95518806 236.80819332 -52.7265625 247.78662109 C-73.72986101 258.46804665 -94.86134608 267.30448362 -117.9375 272.3125 C-118.83597656 272.50972656 -119.73445313 272.70695312 -120.66015625 272.91015625 C-128.96090011 274.52006668 -137.14234913 274.61852232 -145.56445312 274.57324219 C-147.93385397 274.5625165 -150.30249695 274.57319891 -152.671875 274.5859375 C-170.36795193 274.60211582 -188.17340226 272.65585702 -201.6875 260.0625 C-205.54524139 255.98483986 -208.2476491 251.20940805 -210.9375 246.3125 C-211.79730469 247.01375 -212.65710938 247.715 -213.54296875 248.4375 C-225.50504833 258.08670603 -237.49851711 265.73498675 -251.9375 271.3125 C-253.12666016 271.82490234 -253.12666016 271.82490234 -254.33984375 272.34765625 C-264.48711594 276.18186279 -279.62855374 276.18197002 -289.77734375 272.3515625 C-302.44782581 266.25690024 -310.72829682 258.37288655 -316.19921875 245.296875 C-321.2265151 230.40902194 -319.99299963 214.27922482 -315.9375 199.3125 C-315.9375 198.9825 -315.9375 198.6525 -315.9375 198.3125 C-317.29241884 199.81182062 -318.64638678 201.31200054 -320 202.8125 C-321.24910156 204.19695312 -321.24910156 204.19695312 -322.5234375 205.609375 C-324.4233942 207.7368346 -326.28081942 209.88731265 -328.125 212.0625 C-336.86044413 222.05455094 -346.44820067 231.18887243 -356.9375 239.3125 C-357.91847656 240.09882812 -358.89945313 240.88515625 -359.91015625 241.6953125 C-380.78113022 258.30623526 -407.08892283 276.18929658 -434.9375 273.3125 C-448.19489737 270.77512723 -460.17195689 263.79265299 -467.8125 252.5546875 C-471.61805876 246.35479802 -474.27174145 240.38556709 -475.9375 233.3125 C-476.10950928 232.7232373 -476.28151855 232.13397461 -476.45874023 231.52685547 C-479.24529384 218.63851219 -477.72981469 202.15072848 -474.9375 189.3125 C-474.69257812 188.1575 -474.44765625 187.0025 -474.1953125 185.8125 C-463.76331385 142.23813394 -432.77852655 103.52426488 -398.9375 75.3125 C-398.17824219 74.66410156 -397.41898438 74.01570312 -396.63671875 73.34765625 C-372.65118189 53.22018753 -345.05872815 34.5285125 -313.9375 28.3125 C-313.16921875 28.10753906 -312.4009375 27.90257812 -311.609375 27.69140625 C-296.36487137 23.82697788 -276.91910925 24.67056564 -263.35546875 32.734375 C-258.49107033 35.90920046 -254.61542131 38.43977543 -252.9375 44.3125 C-249.5621731 41.03644742 -246.54527263 37.67878427 -243.66015625 33.9609375 C-238.04490488 28.58761306 -231.88353583 28.82364069 -224.5625 28.875 C-223.05816406 28.8450293 -223.05816406 28.8450293 -221.5234375 28.81445312 C-213.71824502 28.81956124 -208.10016736 30.22889933 -202.4375 35.75 C-200.12816635 41.23466742 -200.2076394 46.45104221 -200.9375 52.3125 C-202.5 55.5 -202.5 55.5 -204.9375 58.3125 C-229.27787882 91.18089476 -248.26864038 131.74643023 -261.9375 170.3125 C-262.1658252 170.94671875 -262.39415039 171.5809375 -262.62939453 172.234375 C-264.1762585 176.56163624 -265.59166655 180.91765767 -266.9375 185.3125 C-267.13504883 185.94333496 -267.33259766 186.57416992 -267.53613281 187.22412109 C-269.95748997 195.11235584 -271.30271379 202.60460719 -271.375 210.875 C-271.3850708 211.61274658 -271.3951416 212.35049316 -271.40551758 213.1105957 C-271.32421308 218.17280982 -270.30183587 221.82083993 -267.9375 226.3125 C-264.20921236 228.17664382 -260.53942286 227.76474353 -256.640625 226.6640625 C-238.87226995 220.04336969 -222.61239947 205.51077341 -210.546875 191.17578125 C-208.92063353 189.29297256 -207.21391028 187.55353927 -205.4375 185.8125 C-203.00360268 183.42196833 -200.72394441 180.96203738 -198.5 178.375 C-197.31416205 177.01937765 -196.12660042 175.66526155 -194.9375 174.3125 C-194.28652344 173.55839844 -193.63554688 172.80429687 -192.96484375 172.02734375 C-187.93079007 166.52771285 -187.93079007 166.52771285 -183.1875 165.5 C-179.9375 166.3125 -179.9375 166.3125 -177.625 168.125 C-173.54479246 175.83205869 -173.6557154 184.89423358 -173.28125 193.44140625 C-173.22223814 196.4397835 -173.22223814 196.4397835 -170.9375 198.3125 C-170.6640625 200.8515625 -170.6640625 200.8515625 -170.5625 203.9375 C-170.08742741 210.44833097 -168.98949265 215.24552212 -164.29663086 219.96142578 C-158.89046672 224.37470631 -154.93537729 225.15428771 -148.0625 224.8125 C-147.14194824 224.78623535 -146.22139648 224.7599707 -145.27294922 224.73291016 C-142.49054691 224.63468517 -139.71630072 224.48339422 -136.9375 224.3125 C-135.77154297 224.2501416 -135.77154297 224.2501416 -134.58203125 224.18652344 C-112.05998844 222.84118017 -79.8437272 215.97984326 -63.5625 199.3125 C-61.38241836 196.47345162 -60.93470621 195.29418517 -60.375 191.625 C-62.99823902 186.06373327 -68.85374187 184.4871926 -74.41333008 182.36938477 C-76.96943262 181.50031501 -79.536572 180.70492572 -82.125 179.9375 C-83.09840332 179.64423828 -84.07180664 179.35097656 -85.07470703 179.04882812 C-93.40740545 176.61201718 -101.83684368 174.67294629 -110.3125 172.8125 C-150.09050828 164.08032462 -150.09050828 164.08032462 -163.9375 156.3125 C-165.42443359 155.47912109 -165.42443359 155.47912109 -166.94140625 154.62890625 C-176.54554129 148.88688676 -182.35600198 142.32881366 -185.47021484 131.4519043 C-187.88221529 120.40887404 -186.72880671 107.45124723 -181.9375 97.3125 C-181.463125 96.28253906 -180.98875 95.25257813 -180.5 94.19140625 C-157.95834893 49.05391746 -104.11585164 25.63066843 -58.9375 10.3125 C-50.6821418 7.65865754 -42.35537629 5.3859068 -33.9375 3.3125 C-33.21369141 3.12187988 -32.48988281 2.93125977 -31.74414062 2.73486328 C-21.27661463 0.02498303 -10.73195567 0.03620906 0 0 Z " fill="#373744" transform="translate(1124.9375,840.6875)"/>
<path d="M0 0 C5.56787483 4.90503259 9.91106157 11.72289581 11.0625 19.125 C9.71331728 28.95475981 0.38098862 36.77361484 -7.07226562 42.65087891 C-30.05234219 59.74534632 -57.28735177 67.14337616 -85.28125 70.69921875 C-86.13485107 70.81241455 -86.98845215 70.92561035 -87.86791992 71.04223633 C-90.375 71.3125 -90.375 71.3125 -92.8137207 71.35424805 C-96.11403817 71.46106674 -98.45371805 71.56175209 -101.06982422 73.69360352 C-102.72230009 75.63322662 -104.14529897 77.632461 -105.5625 79.75 C-106.68077383 81.31488785 -107.80061761 82.87865477 -108.921875 84.44140625 C-109.48970703 85.24980957 -110.05753906 86.05821289 -110.64257812 86.89111328 C-113.40729151 90.75532232 -116.36595034 94.46138102 -119.3125 98.1875 C-125.9188797 106.63809581 -132.28731553 115.25321285 -138.61621094 123.91259766 C-140.38508733 126.32626437 -142.16350165 128.73258784 -143.9453125 131.13671875 C-151.02690152 140.69531094 -157.98916885 150.32556008 -164.80810547 160.07324219 C-166.48522532 162.47002363 -168.16625553 164.86403251 -169.84765625 167.2578125 C-183.56170227 186.79634959 -197.1332608 206.4498912 -210.375 226.3125 C-209.16070313 226.27769531 -207.94640625 226.24289062 -206.6953125 226.20703125 C-196.2672593 226.00583699 -186.05492266 226.44800049 -175.6875 227.625 C-174.0780249 227.80156128 -174.0780249 227.80156128 -172.43603516 227.98168945 C-163.04452254 229.12473059 -154.18671757 230.33048949 -147.375 237.3125 C-145.04162127 240.60044276 -144.77600372 243.34414964 -145.375 247.3125 C-148.61507191 254.52091686 -154.7254807 259.89800166 -160.34814453 265.26367188 C-163.92960783 268.70893178 -166.66786397 272.11237263 -169.375 276.3125 C-171.70719195 279.3162856 -172.76306726 280.22815518 -176.5894165 280.7555542 C-177.85960632 280.72890686 -179.12979614 280.70225952 -180.43847656 280.67480469 C-181.14131775 280.66563522 -181.84415894 280.65646576 -182.56829834 280.64701843 C-184.88486232 280.61202478 -187.19969548 280.54835489 -189.515625 280.484375 C-191.12413393 280.45446838 -192.73267713 280.42635558 -194.34124756 280.39996338 C-198.57005181 280.32576284 -202.79795102 280.22721613 -207.02612305 280.12359619 C-211.34265396 280.02212021 -215.65959648 279.94366905 -219.9765625 279.86328125 C-228.44328117 279.70222369 -236.90918228 279.51544442 -245.375 279.3125 C-245.67806564 280.09068588 -245.98113129 280.86887177 -246.29338074 281.67063904 C-247.37256953 284.30656355 -248.63856028 286.51632937 -250.17578125 288.91015625 C-251.01302734 290.22016602 -251.01302734 290.22016602 -251.8671875 291.55664062 C-252.46789062 292.48669922 -253.06859375 293.41675781 -253.6875 294.375 C-254.62529297 295.83776367 -254.62529297 295.83776367 -255.58203125 297.33007812 C-260.18193315 304.49423985 -264.82236431 311.63213387 -269.47338867 318.76318359 C-274.131122 325.91232826 -278.71269073 333.10861559 -283.28515625 340.3125 C-286.78902449 345.82972683 -290.31553645 351.33099186 -293.875 356.8125 C-298.57089981 364.04672403 -303.20694467 371.31799458 -307.83203125 378.59765625 C-312.33187726 385.67858277 -316.84963859 392.74785655 -321.375 399.8125 C-329.85197668 413.04968004 -338.32348326 426.29074882 -346.703125 439.58984375 C-347.23776367 440.43820801 -347.77240234 441.28657227 -348.32324219 442.16064453 C-349.31464847 443.73510253 -350.30498999 445.31023181 -351.29394531 446.88623047 C-353.67281685 450.66599302 -356.07738467 454.42875004 -358.51953125 458.16796875 C-359.22493042 459.2511438 -359.22493042 459.2511438 -359.94458008 460.35620117 C-362.72754213 464.16229008 -365.85507131 466.8058571 -370.375 468.3125 C-383.50616523 469.46247985 -400.44599386 467.59850409 -411.5625 460.1875 C-414.22322817 457.43502258 -414.36136368 456.45113589 -414.75 452.5 C-414.15162778 423.45593291 -381.73238774 389.21388017 -366.14993286 365.95153809 C-363.16608162 361.49694975 -360.19321056 357.03523892 -357.2277832 352.56835938 C-351.27298478 343.60277706 -345.20077005 334.71985396 -339.11083984 325.84570312 C-336.02368862 321.34045965 -332.95000887 316.82603571 -329.875 312.3125 C-323.05435295 302.30380707 -316.21839944 292.30564705 -309.375 282.3125 C-319.4064434 282.82910522 -329.43741829 283.35392358 -339.46780396 283.89070129 C-343.66522975 284.11531088 -347.86270153 284.33853514 -352.06054688 284.55517578 C-367.07428535 285.33236332 -382.04555054 286.23996007 -397 287.8125 C-398.13775879 287.93101318 -399.27551758 288.04952637 -400.44775391 288.17163086 C-406.26209999 288.82173954 -411.72445077 289.81529239 -417.375 291.3125 C-421.87519041 291.95249714 -425.14429366 292.1829996 -428.9375 289.5 C-431.41230912 284.01237977 -431.42179228 278.60542447 -429.59765625 272.8671875 C-426.24596304 265.6389808 -421.25113183 259.24219069 -416.52050781 252.86914062 C-415.56328725 251.5683652 -414.63359849 250.24738797 -413.7109375 248.921875 C-409.54419654 243.00929286 -402.7770646 234.68021905 -395.51586914 232.84179688 C-394.82098389 232.73931641 -394.12609863 232.63683594 -393.41015625 232.53125 C-392.60771484 232.41136719 -391.80527344 232.29148437 -390.97851562 232.16796875 C-390.13998047 232.05066406 -389.30144531 231.93335938 -388.4375 231.8125 C-387.27831055 231.63654297 -387.27831055 231.63654297 -386.09570312 231.45703125 C-368.12490758 228.84360829 -349.99206148 227.71146739 -331.875 226.6875 C-330.72810699 226.62146576 -329.58121399 226.55543152 -328.39956665 226.48739624 C-308.37389308 225.35003441 -288.42746014 224.92500325 -268.375 225.3125 C-268.0968042 224.56734131 -267.8186084 223.82218262 -267.53198242 223.05444336 C-266.49009615 220.58526742 -265.38767867 218.62987542 -263.86328125 216.44140625 C-263.36078857 215.71405273 -262.8582959 214.98669922 -262.34057617 214.23730469 C-261.79506104 213.45774414 -261.2495459 212.67818359 -260.6875 211.875 C-259.50223967 210.16301271 -258.31735862 208.45076279 -257.1328125 206.73828125 C-256.51438477 205.84705566 -255.89595703 204.95583008 -255.25878906 204.03759766 C-252.79044231 200.46687624 -250.35097077 196.87695187 -247.91235352 193.28588867 C-230.92886268 168.28247832 -213.58380545 143.62323338 -195.16992188 119.65087891 C-193.59352048 117.59718297 -192.02194368 115.53995815 -190.453125 113.48046875 C-185.87276542 107.47775519 -181.19237137 101.5711635 -176.3828125 95.75 C-174.35609021 93.28954337 -172.36088248 90.80598473 -170.375 88.3125 C-174.31032394 88.14139896 -177.74388187 88.31991817 -181.5859375 89.1953125 C-189.03109842 90.7322638 -196.57516942 91.48959699 -204.125 92.3125 C-204.91334229 92.39932037 -205.70168457 92.48614075 -206.51391602 92.57559204 C-222.11058065 94.28263011 -237.70410571 95.50235516 -253.375 96.3125 C-254.4273584 96.37034668 -255.4797168 96.42819336 -256.56396484 96.48779297 C-290.85452987 98.30561905 -326.36379945 99.66759062 -360.375 94.3125 C-361.16116699 94.20035156 -361.94733398 94.08820313 -362.75732422 93.97265625 C-383.54287204 90.99344037 -404.98739381 83.95614408 -418.3125 66.8125 C-423.95275622 57.99209931 -424.30911707 48.49225303 -423.375 38.3125 C-422.55110471 35.13952229 -421.34771918 32.91129173 -419.375 30.3125 C-418.69824219 29.33796875 -418.69824219 29.33796875 -418.0078125 28.34375 C-409.53940942 17.38959676 -396.6686312 12.28181628 -383.375 10.3125 C-378.71017389 10.07435139 -374.04533679 10.08164072 -369.375 10.0625 C-368.116875 10.041875 -366.85875 10.02125 -365.5625 10 C-364.345625 9.99484375 -363.12875 9.9896875 -361.875 9.984375 C-360.21984375 9.97035645 -360.21984375 9.97035645 -358.53125 9.95605469 C-354.93361166 10.36234738 -352.50045123 11.52972191 -349.375 13.3125 C-349.75 15.25 -349.75 15.25 -350.375 17.3125 C-352.73861636 18.49430818 -354.30453725 18.41347071 -356.9375 18.5 C-363.61067062 19.09961823 -368.79552444 22.24644155 -373.09375 27.35546875 C-374.52335415 29.28946964 -374.52335415 29.28946964 -374.9375 31.8125 C-374.57226881 34.52248292 -374.57226881 34.52248292 -372.125 36.4375 C-362.43229165 42.02251263 -350.07738208 42.1102121 -339.1875 42.9375 C-337.69979837 43.05902461 -336.21216739 43.18141732 -334.72460938 43.3046875 C-330.27632861 43.66573472 -325.82773909 44.01095105 -321.375 44.3125 C-320.1508992 44.39730118 -318.9267984 44.48210236 -317.66560364 44.56947327 C-307.23992463 45.2586269 -296.85650956 45.47562708 -286.41015625 45.48046875 C-284.7222847 45.48370135 -283.0344134 45.48706671 -281.34654236 45.49055481 C-277.82452754 45.49649175 -274.30253703 45.49840079 -270.78051758 45.49780273 C-267.24888915 45.49772218 -263.71739241 45.50455994 -260.18579102 45.51831055 C-236.83742298 45.60769781 -213.66100182 45.06663229 -190.375 43.3125 C-189.33465607 43.23444122 -188.29431213 43.15638245 -187.22244263 43.07595825 C-175.10200106 42.14160283 -163.01018451 40.8954131 -150.9251709 39.58599854 C-148.414744 39.31676243 -145.90336704 39.05865626 -143.39160156 38.80224609 C-139.48085829 38.39744357 -135.5785458 37.94418898 -131.67773438 37.45303345 C-130.25588765 37.27966618 -128.8323058 37.11984066 -127.40722656 36.97543335 C-115.88636799 35.7855907 -110.53270111 32.00136771 -102.375 24.3125 C-100.03189917 22.50249725 -97.60937436 20.85870751 -95.125 19.25 C-94.50568604 18.84426758 -93.88637207 18.43853516 -93.24829102 18.02050781 C-66.51595017 0.74183796 -31.05005369 -15.52502684 0 0 Z " fill="#373744" transform="translate(822.375,643.6875)"/>
<path d="M0 0 C0.80179688 -0.020625 1.60359375 -0.04125 2.4296875 -0.0625 C8.32467776 -0.10193137 8.32467776 -0.10193137 10.43652344 1.64550781 C13.3602041 5.21696308 13.16544393 8.82941698 12.75 13.25 C11.22968253 19.89999156 8.72993922 25.89372901 5.5 31.875 C5.0767041 32.66841797 4.6534082 33.46183594 4.21728516 34.27929688 C-3.90841997 49.226688 -13.09202362 63.60843329 -23.25 77.25 C-20.00262378 74.00942853 -16.76896542 70.75588203 -13.54415894 67.49285889 C-11.06222509 64.98379747 -8.57465755 62.48035045 -6.08691406 59.97705078 C-4.78788052 58.66799483 -3.49065209 57.3571449 -2.1953125 56.04443359 C5.46680855 48.28262678 13.16812055 40.99640309 21.75 34.25 C23.50396317 32.77553494 25.2543842 31.29683807 27 29.8125 C44.56927229 15.48755356 67.98022629 0.14531453 91.41088867 0.23364258 C92.22297287 0.23600418 93.03505707 0.23836578 93.87174988 0.24079895 C94.49157242 0.2438353 95.11139496 0.24687164 95.75 0.25 C98.33923231 20.34305736 100.84700589 40.43011913 102.5 60.625 C102.5879332 61.6858783 102.5879332 61.6858783 102.67764282 62.76818848 C104.13206929 80.50540005 104.91140806 98.19653318 104.953125 115.9921875 C104.96001899 117.83990499 104.96696823 119.68762227 104.97396851 121.53533936 C104.99297536 127.39856167 104.99762324 133.2617508 105 139.125 C105.00132557 140.61476978 105.00132557 140.61476978 105.00267792 142.13463593 C105.0403661 189.78706286 105.0403661 189.78706286 103.375 212.875 C103.31187622 213.76539978 103.24875244 214.65579956 103.18371582 215.57318115 C101.73102752 235.23193458 101.73102752 235.23193458 97.81738281 239.21875 C97.03717773 239.7240625 96.25697266 240.229375 95.453125 240.75 C94.58349121 241.32387451 93.71385742 241.89774902 92.81787109 242.48901367 C91.88797363 243.07013916 90.95807617 243.65126465 90 244.25 C89.0507666 244.86012939 88.1015332 245.47025879 87.12353516 246.09887695 C68.24971731 258.06572824 49.44926806 265.05682382 26.76171875 261.82421875 C13.0531027 258.59049311 0.04318855 249.07918938 -7.93359375 237.51171875 C-17.3462974 221.33974423 -15.20533738 204.37783735 -10.95996094 186.90429688 C-4.14516142 161.42613308 9.59416101 136.32966172 23.75 114.25 C24.28512207 113.41146484 24.82024414 112.57292969 25.37158203 111.70898438 C30.37529182 103.88986171 35.47252023 96.13521769 40.65722656 88.43505859 C44.78006103 82.30701234 48.75925808 76.10643932 52.625 69.8125 C53.07762207 69.0788623 53.53024414 68.34522461 53.99658203 67.58935547 C56.84145588 62.91798554 59.36393738 58.17194778 61.75 53.25 C50.54529174 57.48179383 41.7775529 65.08882105 33.0546875 73.12890625 C30.94643423 75.06921392 28.79930368 76.9469982 26.625 78.8125 C23.25214964 81.74511889 20.10385749 84.84779046 17 88.0625 C15.10287531 89.90692678 13.1695572 91.62142874 11.16235352 93.34204102 C6.55244316 97.36555605 2.22195413 101.63384741 -2.09765625 105.96484375 C-2.91318466 106.77941544 -3.72871307 107.59398712 -4.56895447 108.4332428 C-6.28198008 110.14559193 -7.99375965 111.85918842 -9.7043457 113.57397461 C-12.30503552 116.18002015 -14.91101956 118.78068522 -17.51757812 121.38085938 C-19.19042486 123.05436699 -20.86296134 124.72818482 -22.53515625 126.40234375 C-23.30513443 127.1702977 -24.07511261 127.93825165 -24.86842346 128.72947693 C-28.9968529 132.87562532 -32.96330254 137.10331222 -36.76878357 141.54859924 C-38.81662157 143.90085044 -41.01629008 146.07507192 -43.25 148.25 C-46.79918157 151.7617655 -50.16968457 155.34008901 -53.4140625 159.1328125 C-55.6020617 161.65599455 -57.86293113 164.10554519 -60.125 166.5625 C-64.21880209 171.05148057 -68.10469667 175.66243476 -71.91796875 180.390625 C-73.95485065 182.88810833 -76.03343841 185.34234772 -78.13500977 187.78540039 C-84.05144656 194.67538787 -89.57951688 201.82099111 -95.0625 209.05859375 C-98.34660131 213.39167333 -101.70049611 217.66638298 -105.0793457 221.92578125 C-107.61543475 225.13371546 -110.10008751 228.37271364 -112.54296875 231.65234375 C-113.10757812 232.40580078 -113.6721875 233.15925781 -114.25390625 233.93554688 C-115.3381213 235.38577883 -116.41551461 236.84114877 -117.484375 238.30273438 C-121.49011096 243.64542312 -126.18156025 249.21578013 -132.25 252.25 C-138.62804843 252.91530292 -143.89137333 251.77021999 -149.8125 249.5 C-150.86727539 249.12101562 -150.86727539 249.12101562 -151.94335938 248.734375 C-164.32007369 244.17992631 -164.32007369 244.17992631 -168.25 240.25 C-170.48287755 228.23946917 -162.40914891 217.45096366 -156.5625 207.625 C-155.94238037 206.57231934 -155.32226074 205.51963867 -154.68334961 204.43505859 C-152.87708929 201.37047043 -151.06425367 198.30986067 -149.25 195.25 C-147.60190591 192.45966247 -145.95682511 189.66755978 -144.3125 186.875 C-143.92658691 186.22088135 -143.54067383 185.5667627 -143.14306641 184.89282227 C-139.36407334 178.47461693 -135.65269616 172.01777645 -131.9375 165.5625 C-127.12502605 157.20424817 -122.28351521 148.86475601 -117.375 140.5625 C-116.88862061 139.73983643 -116.40224121 138.91717285 -115.90112305 138.06958008 C-112.93854875 133.07101224 -109.95301512 128.08641592 -106.9609375 123.10546875 C-102.19494492 115.17081308 -97.46992997 107.21211587 -92.75 99.25 C-91.15669688 96.56223469 -89.56299305 93.87470791 -87.96875 91.1875 C-87.57725769 90.52740433 -87.18576538 89.86730865 -86.78240967 89.18721008 C-84.4525683 85.26279968 -82.10760442 81.34789569 -79.75177002 77.43904114 C-76.01520708 71.23733885 -72.36298757 64.99653526 -68.78540039 58.70117188 C-61.70617007 46.25613084 -54.35828861 34.05415969 -46.25 22.25 C-45.16138672 20.66251953 -45.16138672 20.66251953 -44.05078125 19.04296875 C-36.54879691 8.89322524 -25.34443941 2.88962249 -13 0.6640625 C-8.64931854 0.18367476 -4.37366631 0.02867978 0 0 Z " fill="#373744" transform="translate(1882.25,852.75)"/>
<path d="M0 0 C0.08636719 0.59167969 0.17273437 1.18335938 0.26171875 1.79296875 C1.23758097 7.28107466 2.23382086 10.6535338 7 14 C9.36450875 14.72909043 11.66888172 15.23656982 14.109375 15.640625 C16 16 16 16 17 17 C18.57903729 29.34755393 12.60443671 40.52463216 7 51.125 C6.14233032 52.75622803 6.14233032 52.75622803 5.26733398 54.42041016 C0.11302021 64.06405662 -5.6237053 73.12599722 -12 82 C-12.57427734 82.80195801 -13.14855469 83.60391602 -13.74023438 84.43017578 C-20.5287719 93.86624294 -27.47662741 103.13363369 -35 112 C-35.90793749 113.09343009 -36.81546501 114.18720068 -37.72265625 115.28125 C-55.95769779 137.1035628 -84.95607697 168.00672152 -115.03515625 171.3359375 C-123.15254237 171.44067797 -123.15254237 171.44067797 -127.125 169.375 C-132.19657152 162.95100941 -131.7070735 154.77410659 -131 147 C-127.87923325 122.79448295 -114.8158882 100.00828252 -100.32714844 80.77587891 C-98.9266018 78.90178467 -97.55972727 77.00600394 -96.1953125 75.10546875 C-89.63912109 66.05377276 -82.53194476 57.78542198 -74.73486328 49.78173828 C-73.05001729 48.05136873 -71.38203061 46.30595791 -69.71484375 44.55859375 C-62.36008592 36.93766585 -54.51246962 30.29182537 -46 24 C-44.72382812 23.04867187 -44.72382812 23.04867187 -43.421875 22.078125 C-33.46340806 14.88956277 -22.88715984 8.72527186 -11.8125 3.4375 C-11.09376709 3.09082275 -10.37503418 2.74414551 -9.63452148 2.38696289 C-6.12255704 0.75567692 -3.93738627 0 0 0 Z " fill="#F8F8F8" transform="translate(1689,895)"/>
<path d="M0 0 C0.73347656 0.00193359 1.46695313 0.00386719 2.22265625 0.00585938 C7.86746348 0.13978714 12.62414576 1.57939148 17.875 3.5625 C19.3188265 4.07733899 20.76283689 4.59166257 22.20703125 5.10546875 C23.70130196 5.65151298 25.19476342 6.19977573 26.6875 6.75 C27.50516846 7.05043213 28.32283691 7.35086426 29.1652832 7.66040039 C34.19000402 9.52209992 39.16769506 11.4750441 44.12695312 13.50415039 C60.12000681 20.04341122 76.46940998 25.68728012 93.2421875 29.87109375 C95.875 30.5625 95.875 30.5625 97.875 31.5625 C96.70239575 44.16799571 92.14675057 58.87347689 82.9375 67.875 C69.15934856 78.99906867 50.20307011 83.72049049 32.98608398 86.07592773 C30.80737452 86.37570523 28.63354878 86.70092715 26.45898438 87.02929688 C-4.72864523 91.58386819 -35.26792943 85.01979464 -63.88427734 72.49902344 C-65.98132475 71.62254993 -68.0823632 70.88042268 -70.23828125 70.1640625 C-75.93672595 67.98577635 -79.71848009 66.00068934 -82.359375 60.390625 C-83.98749704 56.32550765 -85.24307735 52.17867734 -86.42236328 47.96435547 C-87.45913967 44.42029497 -88.79709081 41.00545008 -90.125 37.5625 C-92.24889381 31.93418142 -92.24889381 31.93418142 -91.125 28.5625 C-89.09399414 27.65869141 -89.09399414 27.65869141 -86.41015625 26.9140625 C-85.42378174 26.63393311 -84.43740723 26.35380371 -83.42114258 26.06518555 C-82.35404053 25.77554932 -81.28693848 25.48591309 -80.1875 25.1875 C-79.09010498 24.8778833 -77.99270996 24.5682666 -76.86206055 24.24926758 C-72.10032063 22.91075558 -67.32916058 21.61067571 -62.546875 20.34765625 C-53.62984837 17.97880866 -44.85930694 15.24166936 -36.1211853 12.2796936 C-34.24522776 11.64454506 -32.36642641 11.01781525 -30.48754883 10.39135742 C-24.77097282 8.42393145 -19.53572385 6.34841688 -14.31640625 3.28125 C-9.37536589 0.46109588 -5.63262419 -0.28513284 0 0 Z " fill="#F8F8F8" transform="translate(278.125,413.4375)"/>
<path d="M0 0 C-4.45421697 7.49928166 -9.48881312 14.37015709 -14.82373047 21.25463867 C-18.76107818 26.34691945 -22.57088566 31.51255131 -26.3125 36.75 C-33.08475831 46.20484349 -40.11563177 55.4516171 -47.21484375 64.66259766 C-48.7309697 66.64774396 -50.21733629 68.64876945 -51.6875 70.66796875 C-57.52428789 78.56999224 -64.24897765 85.50856164 -71.1875 92.4375 C-71.66149231 92.91089813 -72.13548462 93.38429626 -72.62384033 93.87203979 C-77.69745437 98.9213829 -82.83859835 103.84387518 -88.26831055 108.5090332 C-90.66814783 110.5752684 -92.98653736 112.72628802 -95.3125 114.875 C-99.75683881 118.92916366 -104.32636359 122.76434 -109.01171875 126.53515625 C-111.1798776 128.32353303 -113.29604669 130.12966165 -115.39453125 131.99609375 C-122.17852141 138.02589994 -129.0902397 143.72594881 -136.4375 149.0625 C-137.1704126 149.59842773 -137.9033252 150.13435547 -138.65844727 150.68652344 C-144.0847365 154.56323649 -149.61942265 158.48972417 -156.3125 159.5 C-159 159 -159 159 -160.64453125 157.2890625 C-163.42763154 152.58907181 -162.47559383 146.83957491 -161.6015625 141.62109375 C-159.42095056 133.25264144 -155.02404006 125.60001807 -151 118 C-150.62456055 117.28247559 -150.24912109 116.56495117 -149.86230469 115.82568359 C-125.35182212 69.22666181 -84.21724721 23.40680552 -33.515625 5.0625 C-22.65375939 1.77980284 -11.40830673 -0.9229192 0 0 Z " fill="#F7F7F7" transform="translate(859,904)"/>
<path d="M0 0 C0.33 0 0.66 0 1 0 C2.09621087 18.33462236 2.4212222 36.6458649 2.54844093 55.01028824 C2.58446475 60.17118263 2.63862142 65.33055269 2.73388672 70.49072266 C2.82667516 75.53782979 2.87533881 80.58358128 2.89283371 85.63149261 C2.90688558 87.54057293 2.93642934 89.44960763 2.98213577 91.35819244 C3.32112244 106.20160471 3.32112244 106.20160471 0.04014587 110.6678772 C-2.23780797 112.45524833 -4.40939777 113.72749621 -7 115 C-8.90417629 116.61521568 -10.80102903 118.2391405 -12.6875 119.875 C-26.66074277 131.56980319 -41.22230372 141.30952801 -60 140 C-64.30482412 138.4895354 -67.12185122 136.5276689 -70 133 C-75.46765815 104.73859816 -47.13407137 69.4298486 -32.5625 47.6875 C-31.04874718 45.45340543 -29.5245743 43.22675278 -28 41 C-26.72673513 39.08494777 -25.45584877 37.16831173 -24.1875 35.25 C-19.02084939 27.50002408 -13.75053452 19.82053458 -8.47412109 12.14501953 C-7.56441195 10.82128576 -6.65567628 9.49688165 -5.74853516 8.17138672 C-4.75236867 6.71612891 -3.75146901 5.26411385 -2.75 3.8125 C-2.22921875 3.05582031 -1.7084375 2.29914062 -1.171875 1.51953125 C-0.78515625 1.01808594 -0.3984375 0.51664063 0 0 Z " fill="#F7F7F7" transform="translate(1985,930)"/>
<path d="M0 0 C3.56822528 1.11560265 5.60258957 2.43114392 8.2734375 5.0234375 C9.86456519 8.20569289 9.61076536 10.48149498 9.2734375 14.0234375 C6.54251399 21.51522231 0.77301923 27.40046149 -4.3984375 33.30078125 C-8.2006686 37.74735017 -7.85874828 41.11188363 -7.82421875 46.75 C-7.8228038 47.61281586 -7.82138885 48.47563171 -7.81993103 49.36459351 C-7.81432438 52.1259098 -7.80177077 54.88714562 -7.7890625 57.6484375 C-7.78404836 59.518228 -7.7794853 61.38801976 -7.77539062 63.2578125 C-7.76435279 67.84638527 -7.7470837 72.43489773 -7.7265625 77.0234375 C-8.52755371 77.20447021 -9.32854492 77.38550293 -10.15380859 77.57202148 C-20.76597045 80.0758611 -27.96512788 83.95383724 -35.5390625 91.8984375 C-46.78777623 103.64868624 -60.96696815 109.51946846 -76.4140625 113.6484375 C-78.60581783 114.24350741 -80.79723571 114.83982192 -82.98828125 115.4375 C-83.94694092 115.6948291 -84.90560059 115.9521582 -85.89331055 116.21728516 C-88.77558665 116.998758 -88.77558665 116.998758 -91.71020508 118.12255859 C-94.87187754 119.06683794 -97.44662883 119.17962482 -100.7265625 119.0234375 C-96.1365972 111.56139387 -91.22097427 104.50497611 -85.8515625 97.5859375 C-84.43059082 95.73989021 -83.01001467 93.89353839 -81.58984375 92.046875 C-80.91775879 91.17514648 -80.24567383 90.30341797 -79.55322266 89.40527344 C-77.3486166 86.53062271 -75.19087362 83.62526424 -73.0390625 80.7109375 C-67.97303468 73.93040313 -62.59860117 67.40203249 -57.23095703 60.85986328 C-55.92110664 59.260919 -54.6181484 57.65633356 -53.31640625 56.05078125 C-44.59227203 45.2999879 -35.56917695 34.84218919 -26.16796875 24.6796875 C-24.19205521 22.52989357 -22.25801306 20.35935806 -20.3515625 18.1484375 C-19.81789063 17.54386719 -19.28421875 16.93929688 -18.734375 16.31640625 C-17.5722957 14.98928456 -16.41697503 13.65605061 -15.28027344 12.30712891 C-13.61640106 10.33959732 -11.92344716 8.4000283 -10.2265625 6.4609375 C-9.69240723 5.81592285 -9.15825195 5.1709082 -8.60791016 4.50634766 C-4.62637654 0.02909671 -4.62637654 0.02909671 0 0 Z " fill="#F7F8F8" transform="translate(279.7265625,304.9765625)"/>
<path d="M0 0 C3.8934457 2.64378688 6.50717091 6.01028316 7.828125 10.54296875 C9.60094533 22.99346558 5.30428988 33.82193204 -1.83203125 43.8046875 C-3.15379035 45.52199162 -4.48572032 47.23156281 -5.83203125 48.9296875 C-6.61578125 49.9815625 -7.39953125 51.0334375 -8.20703125 52.1171875 C-16.87558093 61.4049193 -27.44867424 68.91585368 -40.45239258 69.58959961 C-50.72598844 69.71530793 -50.72598844 69.71530793 -55.20703125 66.8671875 C-60.75638144 60.65720038 -61.40071264 55.5709447 -61.17578125 47.3984375 C-59.6859167 32.36434977 -51.42995787 19.26106402 -40.07421875 9.578125 C-28.62990446 0.59243577 -14.59815253 -5.51709489 0 0 Z " fill="#383745" transform="translate(1590.83203125,749.0703125)"/>
<path d="M0 0 C-2.90652156 5.71281824 -6.23638735 10.81917322 -10.0625 15.9375 C-14.7157991 22.1679478 -19.092926 28.53642164 -23.37719727 35.02514648 C-27.55488696 41.34967656 -31.82035776 47.60957141 -36.11987305 53.85180664 C-38.92932545 57.94032486 -41.70120309 62.04841054 -44.41796875 66.19921875 C-44.96710938 67.03582031 -45.51625 67.87242187 -46.08203125 68.734375 C-47.13359652 70.34114626 -48.17940219 71.95170519 -49.21875 73.56640625 C-49.68667969 74.28054688 -50.15460938 74.9946875 -50.63671875 75.73046875 C-51.04623779 76.36364014 -51.45575684 76.99681152 -51.87768555 77.64916992 C-52.24804932 78.09494385 -52.61841309 78.54071777 -53 79 C-53.66 79 -54.32 79 -55 79 C-63.52964682 58.93455575 -71.82381666 38.77397692 -79.6875 18.4375 C-80.12175293 17.31915771 -80.55600586 16.20081543 -81.00341797 15.04858398 C-81.39803223 14.02063721 -81.79264648 12.99269043 -82.19921875 11.93359375 C-82.54815186 11.02665771 -82.89708496 10.11972168 -83.2565918 9.18530273 C-84 7 -84 7 -84 5 C-67.7718623 3.62647189 -51.54200489 2.48391757 -35.28173828 1.56738281 C-31.81390481 1.37154988 -28.34640525 1.17041078 -24.87890625 0.96875 C-22.64585088 0.84083919 -20.41277857 0.7132235 -18.1796875 0.5859375 C-16.64536575 0.49691666 -16.64536575 0.49691666 -15.08004761 0.40609741 C-10.04372429 0.12482506 -5.04414093 -0.06594223 0 0 Z " fill="#F7F7F7" transform="translate(514,925)"/>
<path d="M0 0 C4.13063076 3.0741284 6.91303074 7.06434273 9.19921875 11.63671875 C9.88298705 19.53912667 10.30477931 27.00962791 5.75390625 33.8359375 C1.1024981 39.22362382 -4.39457793 42.16348356 -11.4921875 42.92578125 C-18.98111501 43.28922856 -24.70684072 42.13669263 -30.80078125 37.63671875 C-35.98769146 32.39600242 -38.73444206 26.76344123 -39.23828125 19.38671875 C-39.0811776 13.18636143 -36.46565244 7.48813092 -32.23828125 2.96484375 C-22.94980077 -4.93036466 -10.70679517 -6.0171844 0 0 Z " fill="#3D3E4A" transform="translate(1155.80078125,1187.36328125)"/>
<path d="M0 0 C4.13063076 3.0741284 6.91303074 7.06434273 9.19921875 11.63671875 C9.96477461 20.01907093 10.65737622 27.97319766 5.12109375 34.8671875 C-1.37321769 40.84670596 -8.28944489 42.95438303 -16.94921875 42.8515625 C-23.85847698 42.33100195 -28.94853475 39.59924358 -33.80078125 34.63671875 C-37.7094396 28.25549057 -39.81625456 22.14891337 -38.80078125 14.63671875 C-35.98942465 6.4571252 -31.85640673 2.34046907 -24.80078125 -2.36328125 C-16.20140421 -4.58154601 -7.81064558 -4.38955766 0 0 Z " fill="#3D3D4A" transform="translate(658.80078125,1187.36328125)"/>
<path d="M0 0 C4.125 -0.0825 8.25 -0.165 12.5 -0.25 C13.78455078 -0.28641602 15.06910156 -0.32283203 16.39257812 -0.36035156 C23.43907836 -0.42831718 28.04730475 0.13917172 34 4 C37.3435476 7.51072498 38.27275047 10.27036909 38.5 15 C38.27069692 20.64764985 36.00512553 23.68639362 32.375 27.875 C31 29 31 29 29 29 C29.56589844 29.83144531 30.13179687 30.66289063 30.71484375 31.51953125 C31.81505859 33.14955078 31.81505859 33.14955078 32.9375 34.8125 C33.66839844 35.89144531 34.39929687 36.97039062 35.15234375 38.08203125 C37 41 37 41 38 44 C34.75397993 44.81150502 32.21366354 45.02413454 29 44 C27.04296875 41.36328125 27.04296875 41.36328125 25.1875 38.0625 C22.53169377 33.29937078 22.53169377 33.29937078 17.83203125 30.98046875 C14.14066521 30.66140527 14.14066521 30.66140527 9 31 C9 35.29 9 39.58 9 44 C6.03 44 3.06 44 0 44 C0 29.48 0 14.96 0 0 Z " fill="#40404C" transform="translate(1189,1185)"/>
<path d="M0 0 C7 0 7 0 9.921875 2.5703125 C10.88620603 3.73767825 11.82793894 4.92396689 12.75 6.125 C13.25442627 6.74721436 13.75885254 7.36942871 14.27856445 8.01049805 C15.87456867 9.99041739 17.43837905 11.99289039 19 14 C20.06008652 15.3381208 21.12126978 16.67537354 22.18359375 18.01171875 C24.10888315 20.44136762 26.02021414 22.88082393 27.91796875 25.33203125 C29.38561271 27.23089263 29.38561271 27.23089263 31 29 C31.33 19.76 31.66 10.52 32 1 C34.64 1 37.28 1 40 1 C40 15.52 40 30.04 40 45 C33 45 33 45 30.734375 43.3046875 C30.07953125 42.50289062 29.4246875 41.70109375 28.75 40.875 C27.99976563 39.97265625 27.24953125 39.0703125 26.4765625 38.140625 C25.65929687 37.10421875 24.84203125 36.0678125 24 35 C23.02888232 33.78626908 22.0575186 32.57273499 21.0859375 31.359375 C17.31993224 26.62535594 13.62976176 21.83968234 10 17 C9.67 26.24 9.34 35.48 9 45 C6.03 45 3.06 45 0 45 C0 30.15 0 15.3 0 0 Z " fill="#3D3D4A" transform="translate(848,1184)"/>
<path d="M0 0 C2.64 0 5.28 0 8 0 C9 1 9 1 9.12025452 2.79066467 C9.11803391 3.57009933 9.11581329 4.349534 9.11352539 5.15258789 C9.11344986 6.03342545 9.11337433 6.914263 9.11329651 7.8217926 C9.10813522 8.77907761 9.10297394 9.73636261 9.09765625 10.72265625 C9.0962413 11.69786728 9.09482635 12.67307831 9.09336853 13.67784119 C9.08775133 16.80609143 9.07519593 19.93427123 9.0625 23.0625 C9.05748722 25.17773334 9.05292393 27.29296781 9.04882812 29.40820312 C9.03777631 34.60549607 9.02050016 39.80273608 9 45 C6.03 45 3.06 45 0 45 C0 38.73 0 32.46 0 26 C-7.59 26 -15.18 26 -23 26 C-23 32.27 -23 38.54 -23 45 C-25.64 45 -28.28 45 -31 45 C-31 30.48 -31 15.96 -31 1 C-28.36 1 -25.72 1 -23 1 C-23 6.94 -23 12.88 -23 19 C-15.41 19 -7.82 19 0 19 C0 12.73 0 6.46 0 0 Z " fill="#3D3E4A" transform="translate(777,1184)"/>
<path d="M0 0 C1.34888732 0.00015905 2.69778075 0.00584927 4.04663086 0.01586914 C5.10991859 0.01799156 5.10991859 0.01799156 6.19468689 0.02015686 C8.46699173 0.02577096 10.73919936 0.03832576 13.01147461 0.05102539 C14.54858257 0.05603858 16.08569206 0.0606018 17.62280273 0.06469727 C21.39823103 0.07574497 25.17358632 0.09301898 28.94897461 0.11352539 C28.94897461 2.42352539 28.94897461 4.73352539 28.94897461 7.11352539 C21.02897461 7.11352539 13.10897461 7.11352539 4.94897461 7.11352539 C4.94897461 11.07352539 4.94897461 15.03352539 4.94897461 19.11352539 C11.87897461 19.11352539 18.80897461 19.11352539 25.94897461 19.11352539 C25.94897461 21.42352539 25.94897461 23.73352539 25.94897461 26.11352539 C19.01897461 26.11352539 12.08897461 26.11352539 4.94897461 26.11352539 C4.94897461 30.07352539 4.94897461 34.03352539 4.94897461 38.11352539 C13.19897461 38.11352539 21.44897461 38.11352539 29.94897461 38.11352539 C29.94897461 40.42352539 29.94897461 42.73352539 29.94897461 45.11352539 C18.72897461 45.11352539 7.50897461 45.11352539 -4.05102539 45.11352539 C-4.07393052 38.86551453 -4.09385878 32.61764824 -4.10595703 26.36962891 C-4.11099837 24.24234525 -4.1178313 22.11506508 -4.12646484 19.98779297 C-4.13853918 16.93724713 -4.14425553 13.88674694 -4.14868164 10.83618164 C-4.15384293 9.87889664 -4.15900421 8.92161163 -4.1643219 7.93531799 C-4.16439743 7.05448044 -4.16447296 6.17364288 -4.16455078 5.26611328 C-4.16677139 4.48667862 -4.168992 3.70724396 -4.17127991 2.90419006 C-3.96033751 -0.23687371 -3.19381812 0.11883856 0 0 Z " fill="#41414D" transform="translate(1255.051025390625,1183.886474609375)"/>
<path d="M0 0 C2.44511094 1.43517381 4.70496276 2.86466872 6.875 4.6875 C5.90932113 7.10169718 5.11628309 8.49613755 3.0625 10.125 C0.875 10.6875 0.875 10.6875 -1.75 9.375 C-2.53375 8.818125 -3.3175 8.26125 -4.125 7.6875 C-7.58344824 5.95827588 -11.33665265 6.33613557 -15.125 6.6875 C-19.87535055 8.39045586 -22.34349947 10.50940571 -25.125 14.6875 C-25.71696854 17.86194901 -25.71696854 17.86194901 -25.5625 21.1875 C-25.56056641 22.84265625 -25.56056641 22.84265625 -25.55859375 24.53125 C-24.93276443 29.08683643 -23.48275917 31.55970365 -19.95703125 34.48828125 C-16.21735447 36.07184093 -12.79398263 36.01376481 -8.8125 35.875 C-8.07193359 35.86146484 -7.33136719 35.84792969 -6.56835938 35.83398438 C-4.75358925 35.79885979 -2.93919712 35.74505972 -1.125 35.6875 C-1.125 30.7375 -1.125 25.7875 -1.125 20.6875 C1.515 20.6875 4.155 20.6875 6.875 20.6875 C7.03716064 23.60639148 7.15591202 26.51629225 7.25 29.4375 C7.30027344 30.2625 7.35054687 31.0875 7.40234375 31.9375 C7.46009928 34.32472865 7.43472814 36.36403635 6.875 38.6875 C0.68114609 44.10289139 -6.00387878 45.21576623 -14.01953125 45.06640625 C-20.41672493 44.28586815 -25.9173325 41.46940087 -30.125 36.5625 C-34.89307114 29.70839774 -36.00277922 24.0073204 -35.125 15.6875 C-33.25951358 9.05729986 -28.69717691 4.52680253 -23.125 0.6875 C-16.51227334 -2.65776172 -6.86855665 -2.83701253 0 0 Z " fill="#3E3F4B" transform="translate(947.125,1185.3125)"/>
<path d="M0 0 C-0.66 2.31 -1.32 4.62 -2 7 C-2.9075 6.67 -3.815 6.34 -4.75 6 C-9.98354032 4.50929897 -15.62044021 4.26856863 -21 5 C-23.02224202 6.06832799 -23.02224202 6.06832799 -24 8 C-23.76956136 10.65466049 -23.76956136 10.65466049 -23 13 C-21.77023437 13.37511719 -20.54046875 13.75023437 -19.2734375 14.13671875 C-17.64039258 14.65291111 -16.00759281 15.16987949 -14.375 15.6875 C-13.56675781 15.93177734 -12.75851562 16.17605469 -11.92578125 16.42773438 C-6.59140427 18.14080666 -3.02208428 20.07307544 1 24 C2.5547669 27.10953379 2.28644437 29.56266761 2 33 C-0.21244787 37.70145173 -2.93819911 40.23483163 -7.59765625 42.30859375 C-15.4431256 44.5665581 -23.67241256 43.39153729 -31 40 C-31.99 39.34 -32.98 38.68 -34 38 C-33.01 35.03 -33.01 35.03 -32 32 C-29.38690139 32.44795976 -27.1095709 32.95175197 -24.67578125 34.0234375 C-21.73870395 35.09536352 -19.49112554 35.26716874 -16.375 35.25 C-15.43398437 35.25515625 -14.49296875 35.2603125 -13.5234375 35.265625 C-10.75424779 35.17167307 -10.75424779 35.17167307 -8 33 C-7.7497843 29.91634129 -7.7497843 29.91634129 -8 27 C-9.02480469 26.66226562 -10.04960938 26.32453125 -11.10546875 25.9765625 C-12.46617263 25.5261226 -13.82684822 25.07559724 -15.1875 24.625 C-16.19780273 24.29242187 -16.19780273 24.29242187 -17.22851562 23.953125 C-29.87260198 19.75898904 -29.87260198 19.75898904 -33 14 C-33.72766232 9.83247944 -33.9681478 7.63815736 -31.8203125 4.00390625 C-23.76018489 -6.03993153 -10.95955059 -4.45812228 0 0 Z " fill="#3D3E4A" transform="translate(1043,1187)"/>
<path d="M0 0 C3.83825408 2.17601806 5.92241722 4.26293874 7.75 8.375 C8.59876977 14.36516824 8.17038035 19.24442948 4.75 24.375 C1.75027668 27.84343009 -0.30301609 29.15012905 -4.921875 29.68359375 C-14.25644335 30.07450841 -14.25644335 30.07450841 -18.375 26.625 C-22.23437297 22.82322961 -23.54933824 19.40224935 -23.625 14 C-23.51136887 8.98017794 -22.81167757 6.1193277 -19.25 2.375 C-13.26947318 -2.45484318 -6.98592486 -3.08469409 0 0 Z " fill="#F6F6F6" transform="translate(652.25,1192.625)"/>
<path d="M0 0 C3.67592338 2.04698478 5.81609051 4.03186676 7.375 8 C8.25907126 14.3653131 8.1948988 18.73837331 4.6875 24.25 C1.68777668 27.71843009 -0.36551609 29.02512905 -4.984375 29.55859375 C-14.31706745 29.94942986 -14.31706745 29.94942986 -18.4375 26.4375 C-22.20868909 22.63816771 -23.61974686 19.82387442 -23.6875 14.4375 C-23.58019733 9.20491675 -23.08883063 6.12315962 -19.3125 2.25 C-13.26982214 -2.61473813 -6.99950274 -3.23053973 0 0 Z " fill="#F6F6F6" transform="translate(1149.3125,1192.75)"/>
<path d="M0 0 C2.1400675 1.41713642 3.53209765 2.89012394 4.74609375 5.15625 C2.76609375 6.47625 0.78609375 7.79625 -1.25390625 9.15625 C-1.9809375 8.723125 -1.9809375 8.723125 -2.72265625 8.28125 C-7.8903111 5.41916424 -11.35130009 4.48982672 -17.25390625 5.15625 C-21.98674186 6.88555532 -24.47280165 8.98459311 -27.25390625 13.15625 C-28.17867676 18.58927673 -28.52035565 25.00785492 -25.50390625 29.84375 C-22.57463741 32.85438742 -20.61762918 34.01181167 -16.4140625 34.45703125 C-14.88072266 34.46283203 -14.88072266 34.46283203 -13.31640625 34.46875 C-12.29675781 34.48550781 -11.27710938 34.50226563 -10.2265625 34.51953125 C-6.87394853 34.10981627 -5.05353687 32.977463 -2.25390625 31.15625 C0.7826887 31.41652957 1.55617955 31.9663358 3.74609375 34.15625 C3.640625 36.109375 3.640625 36.109375 2.74609375 38.15625 C-2.87091827 42.63101848 -9.24772124 43.96686475 -16.2890625 43.640625 C-22.45263872 42.63366393 -27.9331876 39.96949348 -32.19140625 35.34375 C-36.57142256 28.57463388 -38.37786929 22.25653537 -37.25390625 14.15625 C-35.3536293 7.52320782 -30.84376877 3.00773814 -25.25390625 -0.84375 C-17.35728317 -4.75943087 -7.71541036 -3.96388055 0 0 Z " fill="#363D49" transform="translate(543.25390625,1186.84375)"/>
<path d="M0 0 C12.54 0 25.08 0 38 0 C38 1.98 38 3.96 38 6 C33.05 6 28.1 6 23 6 C23 18.54 23 31.08 23 44 C20.03 44 17.06 44 14 44 C14 31.79 14 19.58 14 7 C9.38 7 4.76 7 0 7 C0 4.69 0 2.38 0 0 Z " fill="#3F3F4C" transform="translate(1062,1185)"/>
<path d="M0 0 C12.54 0 25.08 0 38 0 C38 1.98 38 3.96 38 6 C33.38 6.33 28.76 6.66 24 7 C23.67 19.21 23.34 31.42 23 44 C20.36 44 17.72 44 15 44 C15 31.46 15 18.92 15 6 C10.05 6 5.1 6 0 6 C0 4.02 0 2.04 0 0 Z " fill="#363744" transform="translate(686,1185)"/>
<path d="M0 0 C2.64 0 5.28 0 8 0 C8 12.21 8 24.42 8 37 C15.92 37 23.84 37 32 37 C32 39.31 32 41.62 32 44 C21.44 44 10.88 44 0 44 C0 29.48 0 14.96 0 0 Z " fill="#383946" transform="translate(571,1185)"/>
<path d="M0 0 C2.64 0 5.28 0 8 0 C8 14.52 8 29.04 8 44 C5.36 44 2.72 44 0 44 C0 29.48 0 14.96 0 0 Z " fill="#363643" transform="translate(813,1185)"/>
<path d="M0 0 C3.83625 -0.12375 3.83625 -0.12375 7.75 -0.25 C8.54889648 -0.28641602 9.34779297 -0.32283203 10.17089844 -0.36035156 C13.65184936 -0.41471402 15.61671111 -0.28242339 18.44921875 1.8046875 C20.68811198 4.97410311 21.06677854 7.12684473 21 11 C17.51970861 16.61779319 17.51970861 16.61779319 14.08764648 17.48095703 C11.91674525 17.59074035 9.85719897 17.52506181 7.6875 17.375 C5.150625 17.25125 2.61375 17.1275 0 17 C0 11.39 0 5.78 0 0 Z " fill="#F6F6F6" transform="translate(1198,1192)"/>
<path d="M0 0 C3.03281652 3.03281652 5.97580906 5.9923601 8.8125 9.1875 C9.41707031 9.86167969 10.02164063 10.53585937 10.64453125 11.23046875 C12 13 12 13 12 15 C8.04 15 4.08 15 0 15 C0 10.05 0 5.1 0 0 Z " fill="#4DD1D2" transform="translate(579,1207)"/>
<path d="M0 0 C0.66 0 1.32 0 2 0 C0.79930977 3.38376338 -0.72503338 6.56683364 -2.375 9.75 C-2.77460938 10.52859375 -3.17421875 11.3071875 -3.5859375 12.109375 C-5 14 -5 14 -7.1640625 14.765625 C-7.76992187 14.84296875 -8.37578125 14.9203125 -9 15 C-7.61624869 11.16009012 -5.83690651 8.02947436 -3.5 4.6875 C-2.8915625 3.80449219 -2.283125 2.92148437 -1.65625 2.01171875 C-1.1096875 1.34785156 -0.563125 0.68398438 0 0 Z " fill="#DCF2F2" transform="translate(193,821)"/>
<path d="M0 0 C0.33 0.66 0.66 1.32 1 2 C-1.3403437 5.84485037 -2.847977 8.2385357 -7 10 C-8.68889872 11.3050581 -10.3603279 12.63360658 -12 14 C-10.41332422 10.09714233 -7.86649519 7.66479018 -4.875 4.75 C-3.96492188 3.85796875 -3.05484375 2.9659375 -2.1171875 2.046875 C-1.41851562 1.37140625 -0.71984375 0.6959375 0 0 Z " fill="#DEF3F3" transform="translate(284,617)"/>
<path d="M0 0 C0.66 0.66 1.32 1.32 2 2 C-0.31 4.64 -2.62 7.28 -5 10 C-5 6.60406522 -4.47834052 5.93380119 -2.5 3.3125 C-2.0359375 2.68988281 -1.571875 2.06726563 -1.09375 1.42578125 C-0.7328125 0.95527344 -0.371875 0.48476563 0 0 Z " fill="#CBCCCF" transform="translate(1864,922)"/>
<path d="M0 0 C0 4.38968456 -2.12805101 5.76905739 -5 9 C-5.33 8.01 -5.66 7.02 -6 6 C-4.02 4.02 -2.04 2.04 0 0 Z " fill="#ECF6F5" transform="translate(279,624)"/>
</svg>
